<mxfile host="app.diagrams.net" agent="Mozilla/5.0 (Windows NT 10.0; Win64; x64) AppleWebKit/537.36 (KHTML, like Gecko) Chrome/134.0.0.0 Safari/537.36 Edg/134.0.0.0" version="26.1.3">
  <diagram id="R2lEEEUBdFMjLlhIrx00" name="DER">
    <mxGraphModel dx="2276" dy="1889" grid="1" gridSize="10" guides="1" tooltips="1" connect="1" arrows="1" fold="1" page="1" pageScale="1" pageWidth="850" pageHeight="1100" math="0" shadow="0" extFonts="Permanent Marker^https://fonts.googleapis.com/css?family=Permanent+Marker">
      <root>
        <mxCell id="0" />
        <mxCell id="1" parent="0" />
        <mxCell id="-osVBcc6kpc7iCXDjhJq-47" value="Usuarios" style="shape=table;startSize=20;container=1;collapsible=1;childLayout=tableLayout;fixedRows=1;rowLines=0;fontStyle=1;align=center;resizeLast=1;html=1;" parent="1" vertex="1">
          <mxGeometry x="-260" y="-1040" width="520" height="210" as="geometry">
            <mxRectangle x="-140" y="-50" width="90" height="30" as="alternateBounds" />
          </mxGeometry>
        </mxCell>
        <mxCell id="-osVBcc6kpc7iCXDjhJq-48" value="" style="shape=tableRow;horizontal=0;startSize=0;swimlaneHead=0;swimlaneBody=0;fillColor=none;collapsible=0;dropTarget=0;points=[[0,0.5],[1,0.5]];portConstraint=eastwest;top=0;left=0;right=0;bottom=1;" parent="-osVBcc6kpc7iCXDjhJq-47" vertex="1">
          <mxGeometry y="20" width="520" height="30" as="geometry" />
        </mxCell>
        <mxCell id="-osVBcc6kpc7iCXDjhJq-49" value="PK" style="shape=partialRectangle;connectable=0;fillColor=none;top=0;left=0;bottom=0;right=0;fontStyle=1;overflow=hidden;whiteSpace=wrap;html=1;" parent="-osVBcc6kpc7iCXDjhJq-48" vertex="1">
          <mxGeometry width="30" height="30" as="geometry">
            <mxRectangle width="30" height="30" as="alternateBounds" />
          </mxGeometry>
        </mxCell>
        <mxCell id="-osVBcc6kpc7iCXDjhJq-50" value="id&lt;span style=&quot;white-space: pre;&quot;&gt;&#x9;&lt;/span&gt;&lt;span style=&quot;font-weight: 400;&quot;&gt;INT&lt;span style=&quot;white-space: pre;&quot;&gt;&#x9;&lt;/span&gt;AUTO_INCREMENT&lt;/span&gt;" style="shape=partialRectangle;connectable=0;fillColor=none;top=0;left=0;bottom=0;right=0;align=left;spacingLeft=6;fontStyle=5;overflow=hidden;whiteSpace=wrap;html=1;" parent="-osVBcc6kpc7iCXDjhJq-48" vertex="1">
          <mxGeometry x="30" width="490" height="30" as="geometry">
            <mxRectangle width="490" height="30" as="alternateBounds" />
          </mxGeometry>
        </mxCell>
        <mxCell id="-osVBcc6kpc7iCXDjhJq-51" value="" style="shape=tableRow;horizontal=0;startSize=0;swimlaneHead=0;swimlaneBody=0;fillColor=none;collapsible=0;dropTarget=0;points=[[0,0.5],[1,0.5]];portConstraint=eastwest;top=0;left=0;right=0;bottom=0;" parent="-osVBcc6kpc7iCXDjhJq-47" vertex="1">
          <mxGeometry y="50" width="520" height="30" as="geometry" />
        </mxCell>
        <mxCell id="-osVBcc6kpc7iCXDjhJq-52" value="" style="shape=partialRectangle;connectable=0;fillColor=none;top=0;left=0;bottom=0;right=0;editable=1;overflow=hidden;whiteSpace=wrap;html=1;" parent="-osVBcc6kpc7iCXDjhJq-51" vertex="1">
          <mxGeometry width="30" height="30" as="geometry">
            <mxRectangle width="30" height="30" as="alternateBounds" />
          </mxGeometry>
        </mxCell>
        <mxCell id="-osVBcc6kpc7iCXDjhJq-53" value="nome&lt;span style=&quot;white-space: pre;&quot;&gt;&#x9;&lt;/span&gt;VARCHAR(50)&lt;span style=&quot;white-space: pre;&quot;&gt;&#x9;&lt;/span&gt;NOT NULL" style="shape=partialRectangle;connectable=0;fillColor=none;top=0;left=0;bottom=0;right=0;align=left;spacingLeft=6;overflow=hidden;whiteSpace=wrap;html=1;" parent="-osVBcc6kpc7iCXDjhJq-51" vertex="1">
          <mxGeometry x="30" width="490" height="30" as="geometry">
            <mxRectangle width="490" height="30" as="alternateBounds" />
          </mxGeometry>
        </mxCell>
        <mxCell id="-osVBcc6kpc7iCXDjhJq-54" value="" style="shape=tableRow;horizontal=0;startSize=0;swimlaneHead=0;swimlaneBody=0;fillColor=none;collapsible=0;dropTarget=0;points=[[0,0.5],[1,0.5]];portConstraint=eastwest;top=0;left=0;right=0;bottom=0;" parent="-osVBcc6kpc7iCXDjhJq-47" vertex="1">
          <mxGeometry y="80" width="520" height="30" as="geometry" />
        </mxCell>
        <mxCell id="-osVBcc6kpc7iCXDjhJq-55" value="" style="shape=partialRectangle;connectable=0;fillColor=none;top=0;left=0;bottom=0;right=0;editable=1;overflow=hidden;whiteSpace=wrap;html=1;" parent="-osVBcc6kpc7iCXDjhJq-54" vertex="1">
          <mxGeometry width="30" height="30" as="geometry">
            <mxRectangle width="30" height="30" as="alternateBounds" />
          </mxGeometry>
        </mxCell>
        <mxCell id="-osVBcc6kpc7iCXDjhJq-56" value="senha&lt;span style=&quot;white-space: pre;&quot;&gt;&#x9;&lt;/span&gt;VARCHAR(20)&lt;span style=&quot;white-space: pre;&quot;&gt;&#x9;&lt;/span&gt;NOT NULL" style="shape=partialRectangle;connectable=0;fillColor=none;top=0;left=0;bottom=0;right=0;align=left;spacingLeft=6;overflow=hidden;whiteSpace=wrap;html=1;" parent="-osVBcc6kpc7iCXDjhJq-54" vertex="1">
          <mxGeometry x="30" width="490" height="30" as="geometry">
            <mxRectangle width="490" height="30" as="alternateBounds" />
          </mxGeometry>
        </mxCell>
        <mxCell id="-osVBcc6kpc7iCXDjhJq-57" value="" style="shape=tableRow;horizontal=0;startSize=0;swimlaneHead=0;swimlaneBody=0;fillColor=none;collapsible=0;dropTarget=0;points=[[0,0.5],[1,0.5]];portConstraint=eastwest;top=0;left=0;right=0;bottom=0;" parent="-osVBcc6kpc7iCXDjhJq-47" vertex="1">
          <mxGeometry y="110" width="520" height="30" as="geometry" />
        </mxCell>
        <mxCell id="-osVBcc6kpc7iCXDjhJq-58" value="" style="shape=partialRectangle;connectable=0;fillColor=none;top=0;left=0;bottom=0;right=0;editable=1;overflow=hidden;whiteSpace=wrap;html=1;" parent="-osVBcc6kpc7iCXDjhJq-57" vertex="1">
          <mxGeometry width="30" height="30" as="geometry">
            <mxRectangle width="30" height="30" as="alternateBounds" />
          </mxGeometry>
        </mxCell>
        <mxCell id="-osVBcc6kpc7iCXDjhJq-59" value="email&lt;span style=&quot;white-space: pre;&quot;&gt;&#x9;&lt;/span&gt;VARCHAR(100)&lt;span style=&quot;white-space: pre;&quot;&gt;&#x9;&lt;/span&gt;UNIQUE&lt;span style=&quot;white-space: pre;&quot;&gt;&#x9;&lt;/span&gt;NOT NULL" style="shape=partialRectangle;connectable=0;fillColor=none;top=0;left=0;bottom=0;right=0;align=left;spacingLeft=6;overflow=hidden;whiteSpace=wrap;html=1;" parent="-osVBcc6kpc7iCXDjhJq-57" vertex="1">
          <mxGeometry x="30" width="490" height="30" as="geometry">
            <mxRectangle width="490" height="30" as="alternateBounds" />
          </mxGeometry>
        </mxCell>
        <mxCell id="-osVBcc6kpc7iCXDjhJq-76" value="" style="shape=tableRow;horizontal=0;startSize=0;swimlaneHead=0;swimlaneBody=0;fillColor=none;collapsible=0;dropTarget=0;points=[[0,0.5],[1,0.5]];portConstraint=eastwest;top=0;left=0;right=0;bottom=0;" parent="-osVBcc6kpc7iCXDjhJq-47" vertex="1">
          <mxGeometry y="140" width="520" height="30" as="geometry" />
        </mxCell>
        <mxCell id="-osVBcc6kpc7iCXDjhJq-77" value="" style="shape=partialRectangle;connectable=0;fillColor=none;top=0;left=0;bottom=0;right=0;editable=1;overflow=hidden;" parent="-osVBcc6kpc7iCXDjhJq-76" vertex="1">
          <mxGeometry width="30" height="30" as="geometry">
            <mxRectangle width="30" height="30" as="alternateBounds" />
          </mxGeometry>
        </mxCell>
        <mxCell id="-osVBcc6kpc7iCXDjhJq-78" value="nivel_acesso    ENUM(&#39;Administrador&#39;, &#39;Auxiliar Docente&#39;, &#39;Professor&#39;, &#39;Aluno&#39;)    NOT NULL" style="shape=partialRectangle;connectable=0;fillColor=none;top=0;left=0;bottom=0;right=0;align=left;spacingLeft=6;overflow=hidden;" parent="-osVBcc6kpc7iCXDjhJq-76" vertex="1">
          <mxGeometry x="30" width="490" height="30" as="geometry">
            <mxRectangle width="490" height="30" as="alternateBounds" />
          </mxGeometry>
        </mxCell>
        <mxCell id="-osVBcc6kpc7iCXDjhJq-83" value="" style="shape=tableRow;horizontal=0;startSize=0;swimlaneHead=0;swimlaneBody=0;fillColor=none;collapsible=0;dropTarget=0;points=[[0,0.5],[1,0.5]];portConstraint=eastwest;top=0;left=0;right=0;bottom=0;" parent="-osVBcc6kpc7iCXDjhJq-47" vertex="1">
          <mxGeometry y="170" width="520" height="30" as="geometry" />
        </mxCell>
        <mxCell id="-osVBcc6kpc7iCXDjhJq-84" value="" style="shape=partialRectangle;connectable=0;fillColor=none;top=0;left=0;bottom=0;right=0;editable=1;overflow=hidden;" parent="-osVBcc6kpc7iCXDjhJq-83" vertex="1">
          <mxGeometry width="30" height="30" as="geometry">
            <mxRectangle width="30" height="30" as="alternateBounds" />
          </mxGeometry>
        </mxCell>
        <mxCell id="-osVBcc6kpc7iCXDjhJq-85" value="data_cadastro    DATE" style="shape=partialRectangle;connectable=0;fillColor=none;top=0;left=0;bottom=0;right=0;align=left;spacingLeft=6;overflow=hidden;" parent="-osVBcc6kpc7iCXDjhJq-83" vertex="1">
          <mxGeometry x="30" width="490" height="30" as="geometry">
            <mxRectangle width="490" height="30" as="alternateBounds" />
          </mxGeometry>
        </mxCell>
        <mxCell id="-osVBcc6kpc7iCXDjhJq-86" value="Matrizes" style="shape=table;startSize=20;container=1;collapsible=1;childLayout=tableLayout;fixedRows=1;rowLines=0;fontStyle=1;align=center;resizeLast=1;html=1;" parent="1" vertex="1">
          <mxGeometry x="-620" y="-680" width="280" height="210" as="geometry">
            <mxRectangle x="-140" y="120" width="90" height="30" as="alternateBounds" />
          </mxGeometry>
        </mxCell>
        <mxCell id="-osVBcc6kpc7iCXDjhJq-87" value="" style="shape=tableRow;horizontal=0;startSize=0;swimlaneHead=0;swimlaneBody=0;fillColor=none;collapsible=0;dropTarget=0;points=[[0,0.5],[1,0.5]];portConstraint=eastwest;top=0;left=0;right=0;bottom=1;" parent="-osVBcc6kpc7iCXDjhJq-86" vertex="1">
          <mxGeometry y="20" width="280" height="30" as="geometry" />
        </mxCell>
        <mxCell id="-osVBcc6kpc7iCXDjhJq-88" value="PK" style="shape=partialRectangle;connectable=0;fillColor=none;top=0;left=0;bottom=0;right=0;fontStyle=1;overflow=hidden;whiteSpace=wrap;html=1;" parent="-osVBcc6kpc7iCXDjhJq-87" vertex="1">
          <mxGeometry width="30" height="30" as="geometry">
            <mxRectangle width="30" height="30" as="alternateBounds" />
          </mxGeometry>
        </mxCell>
        <mxCell id="-osVBcc6kpc7iCXDjhJq-89" value="id&lt;span style=&quot;white-space: pre;&quot;&gt;&#x9;&lt;/span&gt;&lt;span style=&quot;font-weight: 400;&quot;&gt;INT&lt;span style=&quot;white-space: pre;&quot;&gt;&#x9;&lt;/span&gt;AUTO_INCREMENT&lt;/span&gt;" style="shape=partialRectangle;connectable=0;fillColor=none;top=0;left=0;bottom=0;right=0;align=left;spacingLeft=6;fontStyle=5;overflow=hidden;whiteSpace=wrap;html=1;" parent="-osVBcc6kpc7iCXDjhJq-87" vertex="1">
          <mxGeometry x="30" width="250" height="30" as="geometry">
            <mxRectangle width="250" height="30" as="alternateBounds" />
          </mxGeometry>
        </mxCell>
        <mxCell id="-osVBcc6kpc7iCXDjhJq-90" value="" style="shape=tableRow;horizontal=0;startSize=0;swimlaneHead=0;swimlaneBody=0;fillColor=none;collapsible=0;dropTarget=0;points=[[0,0.5],[1,0.5]];portConstraint=eastwest;top=0;left=0;right=0;bottom=0;" parent="-osVBcc6kpc7iCXDjhJq-86" vertex="1">
          <mxGeometry y="50" width="280" height="30" as="geometry" />
        </mxCell>
        <mxCell id="-osVBcc6kpc7iCXDjhJq-91" value="" style="shape=partialRectangle;connectable=0;fillColor=none;top=0;left=0;bottom=0;right=0;editable=1;overflow=hidden;whiteSpace=wrap;html=1;" parent="-osVBcc6kpc7iCXDjhJq-90" vertex="1">
          <mxGeometry width="30" height="30" as="geometry">
            <mxRectangle width="30" height="30" as="alternateBounds" />
          </mxGeometry>
        </mxCell>
        <mxCell id="-osVBcc6kpc7iCXDjhJq-92" value="nome&lt;span style=&quot;white-space: pre;&quot;&gt;&#x9;&lt;/span&gt;VARCHAR(50)&lt;span style=&quot;white-space: pre;&quot;&gt;&#x9;&lt;/span&gt;NOT NULL" style="shape=partialRectangle;connectable=0;fillColor=none;top=0;left=0;bottom=0;right=0;align=left;spacingLeft=6;overflow=hidden;whiteSpace=wrap;html=1;" parent="-osVBcc6kpc7iCXDjhJq-90" vertex="1">
          <mxGeometry x="30" width="250" height="30" as="geometry">
            <mxRectangle width="250" height="30" as="alternateBounds" />
          </mxGeometry>
        </mxCell>
        <mxCell id="-osVBcc6kpc7iCXDjhJq-93" value="" style="shape=tableRow;horizontal=0;startSize=0;swimlaneHead=0;swimlaneBody=0;fillColor=none;collapsible=0;dropTarget=0;points=[[0,0.5],[1,0.5]];portConstraint=eastwest;top=0;left=0;right=0;bottom=0;" parent="-osVBcc6kpc7iCXDjhJq-86" vertex="1">
          <mxGeometry y="80" width="280" height="30" as="geometry" />
        </mxCell>
        <mxCell id="-osVBcc6kpc7iCXDjhJq-94" value="" style="shape=partialRectangle;connectable=0;fillColor=none;top=0;left=0;bottom=0;right=0;editable=1;overflow=hidden;whiteSpace=wrap;html=1;" parent="-osVBcc6kpc7iCXDjhJq-93" vertex="1">
          <mxGeometry width="30" height="30" as="geometry">
            <mxRectangle width="30" height="30" as="alternateBounds" />
          </mxGeometry>
        </mxCell>
        <mxCell id="-osVBcc6kpc7iCXDjhJq-95" value="raça&lt;span style=&quot;white-space: pre;&quot;&gt;&#x9;&lt;/span&gt;&lt;span style=&quot;white-space: pre;&quot;&gt;&#x9;&lt;/span&gt;VARCHAR(50)&lt;span style=&quot;white-space: pre;&quot;&gt;&#x9;&lt;/span&gt;" style="shape=partialRectangle;connectable=0;fillColor=none;top=0;left=0;bottom=0;right=0;align=left;spacingLeft=6;overflow=hidden;whiteSpace=wrap;html=1;" parent="-osVBcc6kpc7iCXDjhJq-93" vertex="1">
          <mxGeometry x="30" width="250" height="30" as="geometry">
            <mxRectangle width="250" height="30" as="alternateBounds" />
          </mxGeometry>
        </mxCell>
        <mxCell id="-osVBcc6kpc7iCXDjhJq-96" value="" style="shape=tableRow;horizontal=0;startSize=0;swimlaneHead=0;swimlaneBody=0;fillColor=none;collapsible=0;dropTarget=0;points=[[0,0.5],[1,0.5]];portConstraint=eastwest;top=0;left=0;right=0;bottom=0;" parent="-osVBcc6kpc7iCXDjhJq-86" vertex="1">
          <mxGeometry y="110" width="280" height="30" as="geometry" />
        </mxCell>
        <mxCell id="-osVBcc6kpc7iCXDjhJq-97" value="" style="shape=partialRectangle;connectable=0;fillColor=none;top=0;left=0;bottom=0;right=0;editable=1;overflow=hidden;whiteSpace=wrap;html=1;" parent="-osVBcc6kpc7iCXDjhJq-96" vertex="1">
          <mxGeometry width="30" height="30" as="geometry">
            <mxRectangle width="30" height="30" as="alternateBounds" />
          </mxGeometry>
        </mxCell>
        <mxCell id="-osVBcc6kpc7iCXDjhJq-98" value="peso&lt;span style=&quot;white-space: pre;&quot;&gt;&#x9;&lt;/span&gt;DECIMAL(5,2)&lt;span style=&quot;white-space: pre;&quot;&gt;&#x9;&lt;span style=&quot;white-space: pre;&quot;&gt;&#x9;&lt;/span&gt;&lt;/span&gt;" style="shape=partialRectangle;connectable=0;fillColor=none;top=0;left=0;bottom=0;right=0;align=left;spacingLeft=6;overflow=hidden;whiteSpace=wrap;html=1;" parent="-osVBcc6kpc7iCXDjhJq-96" vertex="1">
          <mxGeometry x="30" width="250" height="30" as="geometry">
            <mxRectangle width="250" height="30" as="alternateBounds" />
          </mxGeometry>
        </mxCell>
        <mxCell id="-osVBcc6kpc7iCXDjhJq-99" value="" style="shape=tableRow;horizontal=0;startSize=0;swimlaneHead=0;swimlaneBody=0;fillColor=none;collapsible=0;dropTarget=0;points=[[0,0.5],[1,0.5]];portConstraint=eastwest;top=0;left=0;right=0;bottom=0;" parent="-osVBcc6kpc7iCXDjhJq-86" vertex="1">
          <mxGeometry y="140" width="280" height="30" as="geometry" />
        </mxCell>
        <mxCell id="-osVBcc6kpc7iCXDjhJq-100" value="" style="shape=partialRectangle;connectable=0;fillColor=none;top=0;left=0;bottom=0;right=0;editable=1;overflow=hidden;" parent="-osVBcc6kpc7iCXDjhJq-99" vertex="1">
          <mxGeometry width="30" height="30" as="geometry">
            <mxRectangle width="30" height="30" as="alternateBounds" />
          </mxGeometry>
        </mxCell>
        <mxCell id="-osVBcc6kpc7iCXDjhJq-101" value="data_nascimento    DATE" style="shape=partialRectangle;connectable=0;fillColor=none;top=0;left=0;bottom=0;right=0;align=left;spacingLeft=6;overflow=hidden;" parent="-osVBcc6kpc7iCXDjhJq-99" vertex="1">
          <mxGeometry x="30" width="250" height="30" as="geometry">
            <mxRectangle width="250" height="30" as="alternateBounds" />
          </mxGeometry>
        </mxCell>
        <mxCell id="-osVBcc6kpc7iCXDjhJq-102" value="" style="shape=tableRow;horizontal=0;startSize=0;swimlaneHead=0;swimlaneBody=0;fillColor=none;collapsible=0;dropTarget=0;points=[[0,0.5],[1,0.5]];portConstraint=eastwest;top=0;left=0;right=0;bottom=0;" parent="-osVBcc6kpc7iCXDjhJq-86" vertex="1">
          <mxGeometry y="170" width="280" height="30" as="geometry" />
        </mxCell>
        <mxCell id="-osVBcc6kpc7iCXDjhJq-103" value="" style="shape=partialRectangle;connectable=0;fillColor=none;top=0;left=0;bottom=0;right=0;editable=1;overflow=hidden;" parent="-osVBcc6kpc7iCXDjhJq-102" vertex="1">
          <mxGeometry width="30" height="30" as="geometry">
            <mxRectangle width="30" height="30" as="alternateBounds" />
          </mxGeometry>
        </mxCell>
        <mxCell id="-osVBcc6kpc7iCXDjhJq-104" value="data_entrada    DATE" style="shape=partialRectangle;connectable=0;fillColor=none;top=0;left=0;bottom=0;right=0;align=left;spacingLeft=6;overflow=hidden;" parent="-osVBcc6kpc7iCXDjhJq-102" vertex="1">
          <mxGeometry x="30" width="250" height="30" as="geometry">
            <mxRectangle width="250" height="30" as="alternateBounds" />
          </mxGeometry>
        </mxCell>
        <mxCell id="-osVBcc6kpc7iCXDjhJq-118" value="Partos" style="shape=table;startSize=20;container=1;collapsible=1;childLayout=tableLayout;fixedRows=1;rowLines=0;fontStyle=1;align=center;resizeLast=1;html=1;" parent="1" vertex="1">
          <mxGeometry x="-140" y="-680" width="280" height="150" as="geometry">
            <mxRectangle x="180" y="-50" width="90" height="30" as="alternateBounds" />
          </mxGeometry>
        </mxCell>
        <mxCell id="-osVBcc6kpc7iCXDjhJq-119" value="" style="shape=tableRow;horizontal=0;startSize=0;swimlaneHead=0;swimlaneBody=0;fillColor=none;collapsible=0;dropTarget=0;points=[[0,0.5],[1,0.5]];portConstraint=eastwest;top=0;left=0;right=0;bottom=1;" parent="-osVBcc6kpc7iCXDjhJq-118" vertex="1">
          <mxGeometry y="20" width="280" height="30" as="geometry" />
        </mxCell>
        <mxCell id="-osVBcc6kpc7iCXDjhJq-120" value="PK" style="shape=partialRectangle;connectable=0;fillColor=none;top=0;left=0;bottom=0;right=0;fontStyle=1;overflow=hidden;whiteSpace=wrap;html=1;" parent="-osVBcc6kpc7iCXDjhJq-119" vertex="1">
          <mxGeometry width="30" height="30" as="geometry">
            <mxRectangle width="30" height="30" as="alternateBounds" />
          </mxGeometry>
        </mxCell>
        <mxCell id="-osVBcc6kpc7iCXDjhJq-121" value="id&lt;span style=&quot;white-space: pre;&quot;&gt;&#x9;&lt;/span&gt;&lt;span style=&quot;font-weight: 400;&quot;&gt;INT&lt;span style=&quot;white-space: pre;&quot;&gt;&#x9;&lt;/span&gt;AUTO_INCREMENT&lt;/span&gt;" style="shape=partialRectangle;connectable=0;fillColor=none;top=0;left=0;bottom=0;right=0;align=left;spacingLeft=6;fontStyle=5;overflow=hidden;whiteSpace=wrap;html=1;" parent="-osVBcc6kpc7iCXDjhJq-119" vertex="1">
          <mxGeometry x="30" width="250" height="30" as="geometry">
            <mxRectangle width="250" height="30" as="alternateBounds" />
          </mxGeometry>
        </mxCell>
        <mxCell id="-osVBcc6kpc7iCXDjhJq-153" value="" style="shape=tableRow;horizontal=0;startSize=0;swimlaneHead=0;swimlaneBody=0;fillColor=none;collapsible=0;dropTarget=0;points=[[0,0.5],[1,0.5]];portConstraint=eastwest;top=0;left=0;right=0;bottom=0;" parent="-osVBcc6kpc7iCXDjhJq-118" vertex="1">
          <mxGeometry y="50" width="280" height="30" as="geometry" />
        </mxCell>
        <mxCell id="-osVBcc6kpc7iCXDjhJq-154" value="FK" style="shape=partialRectangle;connectable=0;fillColor=none;top=0;left=0;bottom=0;right=0;fontStyle=0;overflow=hidden;whiteSpace=wrap;html=1;" parent="-osVBcc6kpc7iCXDjhJq-153" vertex="1">
          <mxGeometry width="30" height="30" as="geometry">
            <mxRectangle width="30" height="30" as="alternateBounds" />
          </mxGeometry>
        </mxCell>
        <mxCell id="-osVBcc6kpc7iCXDjhJq-155" value="matriz_id&lt;span style=&quot;white-space: pre;&quot;&gt;&#x9;&lt;/span&gt;INT" style="shape=partialRectangle;connectable=0;fillColor=none;top=0;left=0;bottom=0;right=0;align=left;spacingLeft=6;fontStyle=0;overflow=hidden;whiteSpace=wrap;html=1;" parent="-osVBcc6kpc7iCXDjhJq-153" vertex="1">
          <mxGeometry x="30" width="250" height="30" as="geometry">
            <mxRectangle width="250" height="30" as="alternateBounds" />
          </mxGeometry>
        </mxCell>
        <mxCell id="-osVBcc6kpc7iCXDjhJq-131" value="" style="shape=tableRow;horizontal=0;startSize=0;swimlaneHead=0;swimlaneBody=0;fillColor=none;collapsible=0;dropTarget=0;points=[[0,0.5],[1,0.5]];portConstraint=eastwest;top=0;left=0;right=0;bottom=0;" parent="-osVBcc6kpc7iCXDjhJq-118" vertex="1">
          <mxGeometry y="80" width="280" height="30" as="geometry" />
        </mxCell>
        <mxCell id="-osVBcc6kpc7iCXDjhJq-132" value="" style="shape=partialRectangle;connectable=0;fillColor=none;top=0;left=0;bottom=0;right=0;editable=1;overflow=hidden;" parent="-osVBcc6kpc7iCXDjhJq-131" vertex="1">
          <mxGeometry width="30" height="30" as="geometry">
            <mxRectangle width="30" height="30" as="alternateBounds" />
          </mxGeometry>
        </mxCell>
        <mxCell id="-osVBcc6kpc7iCXDjhJq-133" value="data_parto    DATE" style="shape=partialRectangle;connectable=0;fillColor=none;top=0;left=0;bottom=0;right=0;align=left;spacingLeft=6;overflow=hidden;" parent="-osVBcc6kpc7iCXDjhJq-131" vertex="1">
          <mxGeometry x="30" width="250" height="30" as="geometry">
            <mxRectangle width="250" height="30" as="alternateBounds" />
          </mxGeometry>
        </mxCell>
        <mxCell id="-osVBcc6kpc7iCXDjhJq-134" value="" style="shape=tableRow;horizontal=0;startSize=0;swimlaneHead=0;swimlaneBody=0;fillColor=none;collapsible=0;dropTarget=0;points=[[0,0.5],[1,0.5]];portConstraint=eastwest;top=0;left=0;right=0;bottom=0;" parent="-osVBcc6kpc7iCXDjhJq-118" vertex="1">
          <mxGeometry y="110" width="280" height="30" as="geometry" />
        </mxCell>
        <mxCell id="-osVBcc6kpc7iCXDjhJq-135" value="" style="shape=partialRectangle;connectable=0;fillColor=none;top=0;left=0;bottom=0;right=0;editable=1;overflow=hidden;" parent="-osVBcc6kpc7iCXDjhJq-134" vertex="1">
          <mxGeometry width="30" height="30" as="geometry">
            <mxRectangle width="30" height="30" as="alternateBounds" />
          </mxGeometry>
        </mxCell>
        <mxCell id="-osVBcc6kpc7iCXDjhJq-136" value="data_desmame    DATE" style="shape=partialRectangle;connectable=0;fillColor=none;top=0;left=0;bottom=0;right=0;align=left;spacingLeft=6;overflow=hidden;" parent="-osVBcc6kpc7iCXDjhJq-134" vertex="1">
          <mxGeometry x="30" width="250" height="30" as="geometry">
            <mxRectangle width="250" height="30" as="alternateBounds" />
          </mxGeometry>
        </mxCell>
        <mxCell id="-osVBcc6kpc7iCXDjhJq-156" value="Crias" style="shape=table;startSize=20;container=1;collapsible=1;childLayout=tableLayout;fixedRows=1;rowLines=0;fontStyle=1;align=center;resizeLast=1;html=1;" parent="1" vertex="1">
          <mxGeometry x="340" y="-680" width="280" height="180" as="geometry">
            <mxRectangle x="180" y="-50" width="90" height="30" as="alternateBounds" />
          </mxGeometry>
        </mxCell>
        <mxCell id="-osVBcc6kpc7iCXDjhJq-157" value="" style="shape=tableRow;horizontal=0;startSize=0;swimlaneHead=0;swimlaneBody=0;fillColor=none;collapsible=0;dropTarget=0;points=[[0,0.5],[1,0.5]];portConstraint=eastwest;top=0;left=0;right=0;bottom=1;" parent="-osVBcc6kpc7iCXDjhJq-156" vertex="1">
          <mxGeometry y="20" width="280" height="30" as="geometry" />
        </mxCell>
        <mxCell id="-osVBcc6kpc7iCXDjhJq-158" value="PK" style="shape=partialRectangle;connectable=0;fillColor=none;top=0;left=0;bottom=0;right=0;fontStyle=1;overflow=hidden;whiteSpace=wrap;html=1;" parent="-osVBcc6kpc7iCXDjhJq-157" vertex="1">
          <mxGeometry width="30" height="30" as="geometry">
            <mxRectangle width="30" height="30" as="alternateBounds" />
          </mxGeometry>
        </mxCell>
        <mxCell id="-osVBcc6kpc7iCXDjhJq-159" value="id&lt;span style=&quot;white-space: pre;&quot;&gt;&#x9;&lt;/span&gt;&lt;span style=&quot;font-weight: 400;&quot;&gt;INT&lt;span style=&quot;white-space: pre;&quot;&gt;&#x9;&lt;/span&gt;AUTO_INCREMENT&lt;/span&gt;" style="shape=partialRectangle;connectable=0;fillColor=none;top=0;left=0;bottom=0;right=0;align=left;spacingLeft=6;fontStyle=5;overflow=hidden;whiteSpace=wrap;html=1;" parent="-osVBcc6kpc7iCXDjhJq-157" vertex="1">
          <mxGeometry x="30" width="250" height="30" as="geometry">
            <mxRectangle width="250" height="30" as="alternateBounds" />
          </mxGeometry>
        </mxCell>
        <mxCell id="-osVBcc6kpc7iCXDjhJq-160" value="" style="shape=tableRow;horizontal=0;startSize=0;swimlaneHead=0;swimlaneBody=0;fillColor=none;collapsible=0;dropTarget=0;points=[[0,0.5],[1,0.5]];portConstraint=eastwest;top=0;left=0;right=0;bottom=0;" parent="-osVBcc6kpc7iCXDjhJq-156" vertex="1">
          <mxGeometry y="50" width="280" height="30" as="geometry" />
        </mxCell>
        <mxCell id="-osVBcc6kpc7iCXDjhJq-161" value="FK" style="shape=partialRectangle;connectable=0;fillColor=none;top=0;left=0;bottom=0;right=0;fontStyle=0;overflow=hidden;whiteSpace=wrap;html=1;" parent="-osVBcc6kpc7iCXDjhJq-160" vertex="1">
          <mxGeometry width="30" height="30" as="geometry">
            <mxRectangle width="30" height="30" as="alternateBounds" />
          </mxGeometry>
        </mxCell>
        <mxCell id="-osVBcc6kpc7iCXDjhJq-162" value="parto_id&lt;span style=&quot;white-space: pre;&quot;&gt;&#x9;&lt;/span&gt;INT" style="shape=partialRectangle;connectable=0;fillColor=none;top=0;left=0;bottom=0;right=0;align=left;spacingLeft=6;fontStyle=0;overflow=hidden;whiteSpace=wrap;html=1;" parent="-osVBcc6kpc7iCXDjhJq-160" vertex="1">
          <mxGeometry x="30" width="250" height="30" as="geometry">
            <mxRectangle width="250" height="30" as="alternateBounds" />
          </mxGeometry>
        </mxCell>
        <mxCell id="-osVBcc6kpc7iCXDjhJq-169" value="" style="shape=tableRow;horizontal=0;startSize=0;swimlaneHead=0;swimlaneBody=0;fillColor=none;collapsible=0;dropTarget=0;points=[[0,0.5],[1,0.5]];portConstraint=eastwest;top=0;left=0;right=0;bottom=0;" parent="-osVBcc6kpc7iCXDjhJq-156" vertex="1">
          <mxGeometry y="80" width="280" height="30" as="geometry" />
        </mxCell>
        <mxCell id="-osVBcc6kpc7iCXDjhJq-170" value="" style="shape=partialRectangle;connectable=0;fillColor=none;top=0;left=0;bottom=0;right=0;editable=1;overflow=hidden;" parent="-osVBcc6kpc7iCXDjhJq-169" vertex="1">
          <mxGeometry width="30" height="30" as="geometry">
            <mxRectangle width="30" height="30" as="alternateBounds" />
          </mxGeometry>
        </mxCell>
        <mxCell id="-osVBcc6kpc7iCXDjhJq-171" value="nome    VARCHAR(50)    NOT NULL" style="shape=partialRectangle;connectable=0;fillColor=none;top=0;left=0;bottom=0;right=0;align=left;spacingLeft=6;overflow=hidden;" parent="-osVBcc6kpc7iCXDjhJq-169" vertex="1">
          <mxGeometry x="30" width="250" height="30" as="geometry">
            <mxRectangle width="250" height="30" as="alternateBounds" />
          </mxGeometry>
        </mxCell>
        <mxCell id="-osVBcc6kpc7iCXDjhJq-163" value="" style="shape=tableRow;horizontal=0;startSize=0;swimlaneHead=0;swimlaneBody=0;fillColor=none;collapsible=0;dropTarget=0;points=[[0,0.5],[1,0.5]];portConstraint=eastwest;top=0;left=0;right=0;bottom=0;" parent="-osVBcc6kpc7iCXDjhJq-156" vertex="1">
          <mxGeometry y="110" width="280" height="30" as="geometry" />
        </mxCell>
        <mxCell id="-osVBcc6kpc7iCXDjhJq-164" value="" style="shape=partialRectangle;connectable=0;fillColor=none;top=0;left=0;bottom=0;right=0;editable=1;overflow=hidden;" parent="-osVBcc6kpc7iCXDjhJq-163" vertex="1">
          <mxGeometry width="30" height="30" as="geometry">
            <mxRectangle width="30" height="30" as="alternateBounds" />
          </mxGeometry>
        </mxCell>
        <mxCell id="-osVBcc6kpc7iCXDjhJq-165" value="peso_nascimento    DECIMAL(5,2)" style="shape=partialRectangle;connectable=0;fillColor=none;top=0;left=0;bottom=0;right=0;align=left;spacingLeft=6;overflow=hidden;" parent="-osVBcc6kpc7iCXDjhJq-163" vertex="1">
          <mxGeometry x="30" width="250" height="30" as="geometry">
            <mxRectangle width="250" height="30" as="alternateBounds" />
          </mxGeometry>
        </mxCell>
        <mxCell id="-osVBcc6kpc7iCXDjhJq-166" value="" style="shape=tableRow;horizontal=0;startSize=0;swimlaneHead=0;swimlaneBody=0;fillColor=none;collapsible=0;dropTarget=0;points=[[0,0.5],[1,0.5]];portConstraint=eastwest;top=0;left=0;right=0;bottom=0;" parent="-osVBcc6kpc7iCXDjhJq-156" vertex="1">
          <mxGeometry y="140" width="280" height="30" as="geometry" />
        </mxCell>
        <mxCell id="-osVBcc6kpc7iCXDjhJq-167" value="" style="shape=partialRectangle;connectable=0;fillColor=none;top=0;left=0;bottom=0;right=0;editable=1;overflow=hidden;" parent="-osVBcc6kpc7iCXDjhJq-166" vertex="1">
          <mxGeometry width="30" height="30" as="geometry">
            <mxRectangle width="30" height="30" as="alternateBounds" />
          </mxGeometry>
        </mxCell>
        <mxCell id="-osVBcc6kpc7iCXDjhJq-168" value="data_nascimento    DATE" style="shape=partialRectangle;connectable=0;fillColor=none;top=0;left=0;bottom=0;right=0;align=left;spacingLeft=6;overflow=hidden;" parent="-osVBcc6kpc7iCXDjhJq-166" vertex="1">
          <mxGeometry x="30" width="250" height="30" as="geometry">
            <mxRectangle width="250" height="30" as="alternateBounds" />
          </mxGeometry>
        </mxCell>
        <mxCell id="-osVBcc6kpc7iCXDjhJq-173" value="" style="edgeStyle=elbowEdgeStyle;fontSize=12;html=1;endArrow=ERzeroToMany;endFill=1;rounded=0;entryX=0;entryY=0.5;entryDx=0;entryDy=0;exitX=1;exitY=0.5;exitDx=0;exitDy=0;" parent="1" source="-osVBcc6kpc7iCXDjhJq-119" target="-osVBcc6kpc7iCXDjhJq-160" edge="1">
          <mxGeometry width="100" height="100" relative="1" as="geometry">
            <mxPoint x="90" y="-625" as="sourcePoint" />
            <mxPoint x="50" y="-440" as="targetPoint" />
            <Array as="points">
              <mxPoint x="240" y="-600" />
            </Array>
          </mxGeometry>
        </mxCell>
        <mxCell id="-osVBcc6kpc7iCXDjhJq-176" value="" style="edgeStyle=elbowEdgeStyle;fontSize=12;html=1;endArrow=ERzeroToMany;endFill=1;rounded=0;exitX=1;exitY=0.5;exitDx=0;exitDy=0;entryX=0;entryY=0.5;entryDx=0;entryDy=0;" parent="1" source="-osVBcc6kpc7iCXDjhJq-87" target="-osVBcc6kpc7iCXDjhJq-153" edge="1">
          <mxGeometry width="100" height="100" relative="1" as="geometry">
            <mxPoint x="120" y="-640" as="sourcePoint" />
            <mxPoint x="220" y="-740" as="targetPoint" />
          </mxGeometry>
        </mxCell>
        <mxCell id="-osVBcc6kpc7iCXDjhJq-204" value="Vacinas" style="shape=table;startSize=20;container=1;collapsible=1;childLayout=tableLayout;fixedRows=1;rowLines=0;fontStyle=1;align=center;resizeLast=1;html=1;" parent="1" vertex="1">
          <mxGeometry x="-140" y="-400" width="280" height="120" as="geometry">
            <mxRectangle x="-140" y="120" width="90" height="30" as="alternateBounds" />
          </mxGeometry>
        </mxCell>
        <mxCell id="-osVBcc6kpc7iCXDjhJq-205" value="" style="shape=tableRow;horizontal=0;startSize=0;swimlaneHead=0;swimlaneBody=0;fillColor=none;collapsible=0;dropTarget=0;points=[[0,0.5],[1,0.5]];portConstraint=eastwest;top=0;left=0;right=0;bottom=1;" parent="-osVBcc6kpc7iCXDjhJq-204" vertex="1">
          <mxGeometry y="20" width="280" height="30" as="geometry" />
        </mxCell>
        <mxCell id="-osVBcc6kpc7iCXDjhJq-206" value="PK" style="shape=partialRectangle;connectable=0;fillColor=none;top=0;left=0;bottom=0;right=0;fontStyle=1;overflow=hidden;whiteSpace=wrap;html=1;" parent="-osVBcc6kpc7iCXDjhJq-205" vertex="1">
          <mxGeometry width="30" height="30" as="geometry">
            <mxRectangle width="30" height="30" as="alternateBounds" />
          </mxGeometry>
        </mxCell>
        <mxCell id="-osVBcc6kpc7iCXDjhJq-207" value="id&lt;span style=&quot;white-space: pre;&quot;&gt;&#x9;&lt;/span&gt;&lt;span style=&quot;font-weight: 400;&quot;&gt;INT&lt;span style=&quot;white-space: pre;&quot;&gt;&#x9;&lt;/span&gt;AUTO_INCREMENT&lt;/span&gt;" style="shape=partialRectangle;connectable=0;fillColor=none;top=0;left=0;bottom=0;right=0;align=left;spacingLeft=6;fontStyle=5;overflow=hidden;whiteSpace=wrap;html=1;" parent="-osVBcc6kpc7iCXDjhJq-205" vertex="1">
          <mxGeometry x="30" width="250" height="30" as="geometry">
            <mxRectangle width="250" height="30" as="alternateBounds" />
          </mxGeometry>
        </mxCell>
        <mxCell id="-osVBcc6kpc7iCXDjhJq-208" value="" style="shape=tableRow;horizontal=0;startSize=0;swimlaneHead=0;swimlaneBody=0;fillColor=none;collapsible=0;dropTarget=0;points=[[0,0.5],[1,0.5]];portConstraint=eastwest;top=0;left=0;right=0;bottom=0;" parent="-osVBcc6kpc7iCXDjhJq-204" vertex="1">
          <mxGeometry y="50" width="280" height="30" as="geometry" />
        </mxCell>
        <mxCell id="-osVBcc6kpc7iCXDjhJq-209" value="" style="shape=partialRectangle;connectable=0;fillColor=none;top=0;left=0;bottom=0;right=0;editable=1;overflow=hidden;whiteSpace=wrap;html=1;" parent="-osVBcc6kpc7iCXDjhJq-208" vertex="1">
          <mxGeometry width="30" height="30" as="geometry">
            <mxRectangle width="30" height="30" as="alternateBounds" />
          </mxGeometry>
        </mxCell>
        <mxCell id="-osVBcc6kpc7iCXDjhJq-210" value="nome&lt;span style=&quot;white-space: pre;&quot;&gt;&#x9;&lt;/span&gt;VARCHAR(50)&lt;span style=&quot;white-space: pre;&quot;&gt;&#x9;&lt;/span&gt;NOT NULL" style="shape=partialRectangle;connectable=0;fillColor=none;top=0;left=0;bottom=0;right=0;align=left;spacingLeft=6;overflow=hidden;whiteSpace=wrap;html=1;" parent="-osVBcc6kpc7iCXDjhJq-208" vertex="1">
          <mxGeometry x="30" width="250" height="30" as="geometry">
            <mxRectangle width="250" height="30" as="alternateBounds" />
          </mxGeometry>
        </mxCell>
        <mxCell id="-osVBcc6kpc7iCXDjhJq-211" value="" style="shape=tableRow;horizontal=0;startSize=0;swimlaneHead=0;swimlaneBody=0;fillColor=none;collapsible=0;dropTarget=0;points=[[0,0.5],[1,0.5]];portConstraint=eastwest;top=0;left=0;right=0;bottom=0;" parent="-osVBcc6kpc7iCXDjhJq-204" vertex="1">
          <mxGeometry y="80" width="280" height="30" as="geometry" />
        </mxCell>
        <mxCell id="-osVBcc6kpc7iCXDjhJq-212" value="" style="shape=partialRectangle;connectable=0;fillColor=none;top=0;left=0;bottom=0;right=0;editable=1;overflow=hidden;whiteSpace=wrap;html=1;" parent="-osVBcc6kpc7iCXDjhJq-211" vertex="1">
          <mxGeometry width="30" height="30" as="geometry">
            <mxRectangle width="30" height="30" as="alternateBounds" />
          </mxGeometry>
        </mxCell>
        <mxCell id="-osVBcc6kpc7iCXDjhJq-213" value="descricao&lt;span style=&quot;white-space: pre;&quot;&gt;&#x9;&lt;/span&gt;&lt;span style=&quot;white-space: pre;&quot;&gt;&#x9;&lt;/span&gt;TEXT&lt;span style=&quot;white-space: pre;&quot;&gt;&#x9;&lt;/span&gt;" style="shape=partialRectangle;connectable=0;fillColor=none;top=0;left=0;bottom=0;right=0;align=left;spacingLeft=6;overflow=hidden;whiteSpace=wrap;html=1;" parent="-osVBcc6kpc7iCXDjhJq-211" vertex="1">
          <mxGeometry x="30" width="250" height="30" as="geometry">
            <mxRectangle width="250" height="30" as="alternateBounds" />
          </mxGeometry>
        </mxCell>
        <mxCell id="-osVBcc6kpc7iCXDjhJq-223" value="Vacinas_matrizes" style="shape=table;startSize=20;container=1;collapsible=1;childLayout=tableLayout;fixedRows=1;rowLines=0;fontStyle=1;align=center;resizeLast=1;html=1;" parent="1" vertex="1">
          <mxGeometry x="-620" y="-400" width="280" height="150" as="geometry">
            <mxRectangle x="180" y="-50" width="90" height="30" as="alternateBounds" />
          </mxGeometry>
        </mxCell>
        <mxCell id="-osVBcc6kpc7iCXDjhJq-224" value="" style="shape=tableRow;horizontal=0;startSize=0;swimlaneHead=0;swimlaneBody=0;fillColor=none;collapsible=0;dropTarget=0;points=[[0,0.5],[1,0.5]];portConstraint=eastwest;top=0;left=0;right=0;bottom=1;" parent="-osVBcc6kpc7iCXDjhJq-223" vertex="1">
          <mxGeometry y="20" width="280" height="30" as="geometry" />
        </mxCell>
        <mxCell id="-osVBcc6kpc7iCXDjhJq-225" value="PK" style="shape=partialRectangle;connectable=0;fillColor=none;top=0;left=0;bottom=0;right=0;fontStyle=1;overflow=hidden;whiteSpace=wrap;html=1;" parent="-osVBcc6kpc7iCXDjhJq-224" vertex="1">
          <mxGeometry width="30" height="30" as="geometry">
            <mxRectangle width="30" height="30" as="alternateBounds" />
          </mxGeometry>
        </mxCell>
        <mxCell id="-osVBcc6kpc7iCXDjhJq-226" value="id&lt;span style=&quot;white-space: pre;&quot;&gt;&#x9;&lt;/span&gt;&lt;span style=&quot;font-weight: 400;&quot;&gt;INT&lt;span style=&quot;white-space: pre;&quot;&gt;&#x9;&lt;/span&gt;AUTO_INCREMENT&lt;/span&gt;" style="shape=partialRectangle;connectable=0;fillColor=none;top=0;left=0;bottom=0;right=0;align=left;spacingLeft=6;fontStyle=5;overflow=hidden;whiteSpace=wrap;html=1;" parent="-osVBcc6kpc7iCXDjhJq-224" vertex="1">
          <mxGeometry x="30" width="250" height="30" as="geometry">
            <mxRectangle width="250" height="30" as="alternateBounds" />
          </mxGeometry>
        </mxCell>
        <mxCell id="-osVBcc6kpc7iCXDjhJq-227" value="" style="shape=tableRow;horizontal=0;startSize=0;swimlaneHead=0;swimlaneBody=0;fillColor=none;collapsible=0;dropTarget=0;points=[[0,0.5],[1,0.5]];portConstraint=eastwest;top=0;left=0;right=0;bottom=0;" parent="-osVBcc6kpc7iCXDjhJq-223" vertex="1">
          <mxGeometry y="50" width="280" height="30" as="geometry" />
        </mxCell>
        <mxCell id="-osVBcc6kpc7iCXDjhJq-228" value="FK" style="shape=partialRectangle;connectable=0;fillColor=none;top=0;left=0;bottom=0;right=0;fontStyle=0;overflow=hidden;whiteSpace=wrap;html=1;" parent="-osVBcc6kpc7iCXDjhJq-227" vertex="1">
          <mxGeometry width="30" height="30" as="geometry">
            <mxRectangle width="30" height="30" as="alternateBounds" />
          </mxGeometry>
        </mxCell>
        <mxCell id="-osVBcc6kpc7iCXDjhJq-229" value="matriz_id&lt;span style=&quot;white-space: pre;&quot;&gt;&#x9;&lt;/span&gt;INT" style="shape=partialRectangle;connectable=0;fillColor=none;top=0;left=0;bottom=0;right=0;align=left;spacingLeft=6;fontStyle=0;overflow=hidden;whiteSpace=wrap;html=1;" parent="-osVBcc6kpc7iCXDjhJq-227" vertex="1">
          <mxGeometry x="30" width="250" height="30" as="geometry">
            <mxRectangle width="250" height="30" as="alternateBounds" />
          </mxGeometry>
        </mxCell>
        <mxCell id="-osVBcc6kpc7iCXDjhJq-247" value="" style="shape=tableRow;horizontal=0;startSize=0;swimlaneHead=0;swimlaneBody=0;fillColor=none;collapsible=0;dropTarget=0;points=[[0,0.5],[1,0.5]];portConstraint=eastwest;top=0;left=0;right=0;bottom=0;" parent="-osVBcc6kpc7iCXDjhJq-223" vertex="1">
          <mxGeometry y="80" width="280" height="30" as="geometry" />
        </mxCell>
        <mxCell id="-osVBcc6kpc7iCXDjhJq-248" value="FK" style="shape=partialRectangle;connectable=0;fillColor=none;top=0;left=0;bottom=0;right=0;fontStyle=0;overflow=hidden;whiteSpace=wrap;html=1;" parent="-osVBcc6kpc7iCXDjhJq-247" vertex="1">
          <mxGeometry width="30" height="30" as="geometry">
            <mxRectangle width="30" height="30" as="alternateBounds" />
          </mxGeometry>
        </mxCell>
        <mxCell id="-osVBcc6kpc7iCXDjhJq-249" value="vacina_id&lt;span style=&quot;white-space: pre;&quot;&gt;&#x9;&lt;/span&gt;INT" style="shape=partialRectangle;connectable=0;fillColor=none;top=0;left=0;bottom=0;right=0;align=left;spacingLeft=6;fontStyle=0;overflow=hidden;whiteSpace=wrap;html=1;" parent="-osVBcc6kpc7iCXDjhJq-247" vertex="1">
          <mxGeometry x="30" width="250" height="30" as="geometry">
            <mxRectangle width="250" height="30" as="alternateBounds" />
          </mxGeometry>
        </mxCell>
        <mxCell id="-osVBcc6kpc7iCXDjhJq-230" value="" style="shape=tableRow;horizontal=0;startSize=0;swimlaneHead=0;swimlaneBody=0;fillColor=none;collapsible=0;dropTarget=0;points=[[0,0.5],[1,0.5]];portConstraint=eastwest;top=0;left=0;right=0;bottom=0;" parent="-osVBcc6kpc7iCXDjhJq-223" vertex="1">
          <mxGeometry y="110" width="280" height="30" as="geometry" />
        </mxCell>
        <mxCell id="-osVBcc6kpc7iCXDjhJq-231" value="" style="shape=partialRectangle;connectable=0;fillColor=none;top=0;left=0;bottom=0;right=0;editable=1;overflow=hidden;" parent="-osVBcc6kpc7iCXDjhJq-230" vertex="1">
          <mxGeometry width="30" height="30" as="geometry">
            <mxRectangle width="30" height="30" as="alternateBounds" />
          </mxGeometry>
        </mxCell>
        <mxCell id="-osVBcc6kpc7iCXDjhJq-232" value="data_aplicacao    DATE" style="shape=partialRectangle;connectable=0;fillColor=none;top=0;left=0;bottom=0;right=0;align=left;spacingLeft=6;overflow=hidden;" parent="-osVBcc6kpc7iCXDjhJq-230" vertex="1">
          <mxGeometry x="30" width="250" height="30" as="geometry">
            <mxRectangle width="250" height="30" as="alternateBounds" />
          </mxGeometry>
        </mxCell>
        <mxCell id="-osVBcc6kpc7iCXDjhJq-250" value="" style="edgeStyle=elbowEdgeStyle;fontSize=12;html=1;endArrow=ERzeroToMany;endFill=1;rounded=0;exitX=0;exitY=0.5;exitDx=0;exitDy=0;entryX=1;entryY=0.5;entryDx=0;entryDy=0;" parent="1" source="-osVBcc6kpc7iCXDjhJq-205" target="-osVBcc6kpc7iCXDjhJq-247" edge="1">
          <mxGeometry width="100" height="100" relative="1" as="geometry">
            <mxPoint x="-330" y="-60" as="sourcePoint" />
            <mxPoint x="-330" y="-265" as="targetPoint" />
            <Array as="points">
              <mxPoint x="-240" y="-330" />
            </Array>
          </mxGeometry>
        </mxCell>
        <mxCell id="-osVBcc6kpc7iCXDjhJq-251" value="" style="edgeStyle=elbowEdgeStyle;fontSize=12;html=1;endArrow=ERzeroToMany;endFill=1;rounded=0;entryX=0;entryY=0.5;entryDx=0;entryDy=0;exitX=0;exitY=0.5;exitDx=0;exitDy=0;" parent="1" source="-osVBcc6kpc7iCXDjhJq-87" target="-osVBcc6kpc7iCXDjhJq-227" edge="1">
          <mxGeometry width="100" height="100" relative="1" as="geometry">
            <mxPoint x="-300" y="-480" as="sourcePoint" />
            <mxPoint x="160" y="-280" as="targetPoint" />
            <Array as="points">
              <mxPoint x="-630" y="-480" />
            </Array>
          </mxGeometry>
        </mxCell>
        <mxCell id="-osVBcc6kpc7iCXDjhJq-252" value="Vacinas_crias" style="shape=table;startSize=20;container=1;collapsible=1;childLayout=tableLayout;fixedRows=1;rowLines=0;fontStyle=1;align=center;resizeLast=1;html=1;" parent="1" vertex="1">
          <mxGeometry x="340" y="-400" width="280" height="150" as="geometry">
            <mxRectangle x="180" y="-50" width="90" height="30" as="alternateBounds" />
          </mxGeometry>
        </mxCell>
        <mxCell id="-osVBcc6kpc7iCXDjhJq-253" value="" style="shape=tableRow;horizontal=0;startSize=0;swimlaneHead=0;swimlaneBody=0;fillColor=none;collapsible=0;dropTarget=0;points=[[0,0.5],[1,0.5]];portConstraint=eastwest;top=0;left=0;right=0;bottom=1;" parent="-osVBcc6kpc7iCXDjhJq-252" vertex="1">
          <mxGeometry y="20" width="280" height="30" as="geometry" />
        </mxCell>
        <mxCell id="-osVBcc6kpc7iCXDjhJq-254" value="PK" style="shape=partialRectangle;connectable=0;fillColor=none;top=0;left=0;bottom=0;right=0;fontStyle=1;overflow=hidden;whiteSpace=wrap;html=1;" parent="-osVBcc6kpc7iCXDjhJq-253" vertex="1">
          <mxGeometry width="30" height="30" as="geometry">
            <mxRectangle width="30" height="30" as="alternateBounds" />
          </mxGeometry>
        </mxCell>
        <mxCell id="-osVBcc6kpc7iCXDjhJq-255" value="id&lt;span style=&quot;white-space: pre;&quot;&gt;&#x9;&lt;/span&gt;&lt;span style=&quot;font-weight: 400;&quot;&gt;INT&lt;span style=&quot;white-space: pre;&quot;&gt;&#x9;&lt;/span&gt;AUTO_INCREMENT&lt;/span&gt;" style="shape=partialRectangle;connectable=0;fillColor=none;top=0;left=0;bottom=0;right=0;align=left;spacingLeft=6;fontStyle=5;overflow=hidden;whiteSpace=wrap;html=1;" parent="-osVBcc6kpc7iCXDjhJq-253" vertex="1">
          <mxGeometry x="30" width="250" height="30" as="geometry">
            <mxRectangle width="250" height="30" as="alternateBounds" />
          </mxGeometry>
        </mxCell>
        <mxCell id="-osVBcc6kpc7iCXDjhJq-256" value="" style="shape=tableRow;horizontal=0;startSize=0;swimlaneHead=0;swimlaneBody=0;fillColor=none;collapsible=0;dropTarget=0;points=[[0,0.5],[1,0.5]];portConstraint=eastwest;top=0;left=0;right=0;bottom=0;" parent="-osVBcc6kpc7iCXDjhJq-252" vertex="1">
          <mxGeometry y="50" width="280" height="30" as="geometry" />
        </mxCell>
        <mxCell id="-osVBcc6kpc7iCXDjhJq-257" value="FK" style="shape=partialRectangle;connectable=0;fillColor=none;top=0;left=0;bottom=0;right=0;fontStyle=0;overflow=hidden;whiteSpace=wrap;html=1;" parent="-osVBcc6kpc7iCXDjhJq-256" vertex="1">
          <mxGeometry width="30" height="30" as="geometry">
            <mxRectangle width="30" height="30" as="alternateBounds" />
          </mxGeometry>
        </mxCell>
        <mxCell id="-osVBcc6kpc7iCXDjhJq-258" value="cria_id&lt;span style=&quot;white-space: pre;&quot;&gt;&#x9;&lt;/span&gt;INT" style="shape=partialRectangle;connectable=0;fillColor=none;top=0;left=0;bottom=0;right=0;align=left;spacingLeft=6;fontStyle=0;overflow=hidden;whiteSpace=wrap;html=1;" parent="-osVBcc6kpc7iCXDjhJq-256" vertex="1">
          <mxGeometry x="30" width="250" height="30" as="geometry">
            <mxRectangle width="250" height="30" as="alternateBounds" />
          </mxGeometry>
        </mxCell>
        <mxCell id="-osVBcc6kpc7iCXDjhJq-259" value="" style="shape=tableRow;horizontal=0;startSize=0;swimlaneHead=0;swimlaneBody=0;fillColor=none;collapsible=0;dropTarget=0;points=[[0,0.5],[1,0.5]];portConstraint=eastwest;top=0;left=0;right=0;bottom=0;" parent="-osVBcc6kpc7iCXDjhJq-252" vertex="1">
          <mxGeometry y="80" width="280" height="30" as="geometry" />
        </mxCell>
        <mxCell id="-osVBcc6kpc7iCXDjhJq-260" value="FK" style="shape=partialRectangle;connectable=0;fillColor=none;top=0;left=0;bottom=0;right=0;fontStyle=0;overflow=hidden;whiteSpace=wrap;html=1;" parent="-osVBcc6kpc7iCXDjhJq-259" vertex="1">
          <mxGeometry width="30" height="30" as="geometry">
            <mxRectangle width="30" height="30" as="alternateBounds" />
          </mxGeometry>
        </mxCell>
        <mxCell id="-osVBcc6kpc7iCXDjhJq-261" value="vacina_id&lt;span style=&quot;white-space: pre;&quot;&gt;&#x9;&lt;/span&gt;INT" style="shape=partialRectangle;connectable=0;fillColor=none;top=0;left=0;bottom=0;right=0;align=left;spacingLeft=6;fontStyle=0;overflow=hidden;whiteSpace=wrap;html=1;" parent="-osVBcc6kpc7iCXDjhJq-259" vertex="1">
          <mxGeometry x="30" width="250" height="30" as="geometry">
            <mxRectangle width="250" height="30" as="alternateBounds" />
          </mxGeometry>
        </mxCell>
        <mxCell id="-osVBcc6kpc7iCXDjhJq-262" value="" style="shape=tableRow;horizontal=0;startSize=0;swimlaneHead=0;swimlaneBody=0;fillColor=none;collapsible=0;dropTarget=0;points=[[0,0.5],[1,0.5]];portConstraint=eastwest;top=0;left=0;right=0;bottom=0;" parent="-osVBcc6kpc7iCXDjhJq-252" vertex="1">
          <mxGeometry y="110" width="280" height="30" as="geometry" />
        </mxCell>
        <mxCell id="-osVBcc6kpc7iCXDjhJq-263" value="" style="shape=partialRectangle;connectable=0;fillColor=none;top=0;left=0;bottom=0;right=0;editable=1;overflow=hidden;" parent="-osVBcc6kpc7iCXDjhJq-262" vertex="1">
          <mxGeometry width="30" height="30" as="geometry">
            <mxRectangle width="30" height="30" as="alternateBounds" />
          </mxGeometry>
        </mxCell>
        <mxCell id="-osVBcc6kpc7iCXDjhJq-264" value="data_aplicacao    DATE" style="shape=partialRectangle;connectable=0;fillColor=none;top=0;left=0;bottom=0;right=0;align=left;spacingLeft=6;overflow=hidden;" parent="-osVBcc6kpc7iCXDjhJq-262" vertex="1">
          <mxGeometry x="30" width="250" height="30" as="geometry">
            <mxRectangle width="250" height="30" as="alternateBounds" />
          </mxGeometry>
        </mxCell>
        <mxCell id="-osVBcc6kpc7iCXDjhJq-265" value="" style="edgeStyle=elbowEdgeStyle;fontSize=12;html=1;endArrow=ERzeroToMany;endFill=1;rounded=0;entryX=0;entryY=0.5;entryDx=0;entryDy=0;exitX=1;exitY=0.5;exitDx=0;exitDy=0;" parent="1" source="-osVBcc6kpc7iCXDjhJq-205" target="-osVBcc6kpc7iCXDjhJq-259" edge="1">
          <mxGeometry width="100" height="100" relative="1" as="geometry">
            <mxPoint x="90" y="-345" as="sourcePoint" />
            <mxPoint x="30" y="-150" as="targetPoint" />
            <Array as="points">
              <mxPoint x="240" y="-350" />
            </Array>
          </mxGeometry>
        </mxCell>
        <mxCell id="-osVBcc6kpc7iCXDjhJq-266" value="" style="edgeStyle=elbowEdgeStyle;fontSize=12;html=1;endArrow=ERzeroToMany;endFill=1;rounded=0;entryX=1;entryY=0.5;entryDx=0;entryDy=0;exitX=1;exitY=0.5;exitDx=0;exitDy=0;" parent="1" source="-osVBcc6kpc7iCXDjhJq-157" target="-osVBcc6kpc7iCXDjhJq-256" edge="1">
          <mxGeometry width="100" height="100" relative="1" as="geometry">
            <mxPoint y="-460" as="sourcePoint" />
            <mxPoint y="-220" as="targetPoint" />
            <Array as="points">
              <mxPoint x="640" y="-490" />
            </Array>
          </mxGeometry>
        </mxCell>
        <mxCell id="-osVBcc6kpc7iCXDjhJq-268" value="Procedimentos" style="shape=table;startSize=20;container=1;collapsible=1;childLayout=tableLayout;fixedRows=1;rowLines=0;fontStyle=1;align=center;resizeLast=1;html=1;" parent="1" vertex="1">
          <mxGeometry x="-140" y="-200" width="280" height="120" as="geometry">
            <mxRectangle x="-140" y="120" width="90" height="30" as="alternateBounds" />
          </mxGeometry>
        </mxCell>
        <mxCell id="-osVBcc6kpc7iCXDjhJq-269" value="" style="shape=tableRow;horizontal=0;startSize=0;swimlaneHead=0;swimlaneBody=0;fillColor=none;collapsible=0;dropTarget=0;points=[[0,0.5],[1,0.5]];portConstraint=eastwest;top=0;left=0;right=0;bottom=1;" parent="-osVBcc6kpc7iCXDjhJq-268" vertex="1">
          <mxGeometry y="20" width="280" height="30" as="geometry" />
        </mxCell>
        <mxCell id="-osVBcc6kpc7iCXDjhJq-270" value="PK" style="shape=partialRectangle;connectable=0;fillColor=none;top=0;left=0;bottom=0;right=0;fontStyle=1;overflow=hidden;whiteSpace=wrap;html=1;" parent="-osVBcc6kpc7iCXDjhJq-269" vertex="1">
          <mxGeometry width="30" height="30" as="geometry">
            <mxRectangle width="30" height="30" as="alternateBounds" />
          </mxGeometry>
        </mxCell>
        <mxCell id="-osVBcc6kpc7iCXDjhJq-271" value="id&lt;span style=&quot;white-space: pre;&quot;&gt;&#x9;&lt;/span&gt;&lt;span style=&quot;font-weight: 400;&quot;&gt;INT&lt;span style=&quot;white-space: pre;&quot;&gt;&#x9;&lt;/span&gt;AUTO_INCREMENT&lt;/span&gt;" style="shape=partialRectangle;connectable=0;fillColor=none;top=0;left=0;bottom=0;right=0;align=left;spacingLeft=6;fontStyle=5;overflow=hidden;whiteSpace=wrap;html=1;" parent="-osVBcc6kpc7iCXDjhJq-269" vertex="1">
          <mxGeometry x="30" width="250" height="30" as="geometry">
            <mxRectangle width="250" height="30" as="alternateBounds" />
          </mxGeometry>
        </mxCell>
        <mxCell id="-osVBcc6kpc7iCXDjhJq-272" value="" style="shape=tableRow;horizontal=0;startSize=0;swimlaneHead=0;swimlaneBody=0;fillColor=none;collapsible=0;dropTarget=0;points=[[0,0.5],[1,0.5]];portConstraint=eastwest;top=0;left=0;right=0;bottom=0;" parent="-osVBcc6kpc7iCXDjhJq-268" vertex="1">
          <mxGeometry y="50" width="280" height="30" as="geometry" />
        </mxCell>
        <mxCell id="-osVBcc6kpc7iCXDjhJq-273" value="" style="shape=partialRectangle;connectable=0;fillColor=none;top=0;left=0;bottom=0;right=0;editable=1;overflow=hidden;whiteSpace=wrap;html=1;" parent="-osVBcc6kpc7iCXDjhJq-272" vertex="1">
          <mxGeometry width="30" height="30" as="geometry">
            <mxRectangle width="30" height="30" as="alternateBounds" />
          </mxGeometry>
        </mxCell>
        <mxCell id="-osVBcc6kpc7iCXDjhJq-274" value="nome&lt;span style=&quot;white-space: pre;&quot;&gt;&#x9;&lt;/span&gt;VARCHAR(50)&lt;span style=&quot;white-space: pre;&quot;&gt;&#x9;&lt;/span&gt;NOT NULL" style="shape=partialRectangle;connectable=0;fillColor=none;top=0;left=0;bottom=0;right=0;align=left;spacingLeft=6;overflow=hidden;whiteSpace=wrap;html=1;" parent="-osVBcc6kpc7iCXDjhJq-272" vertex="1">
          <mxGeometry x="30" width="250" height="30" as="geometry">
            <mxRectangle width="250" height="30" as="alternateBounds" />
          </mxGeometry>
        </mxCell>
        <mxCell id="-osVBcc6kpc7iCXDjhJq-275" value="" style="shape=tableRow;horizontal=0;startSize=0;swimlaneHead=0;swimlaneBody=0;fillColor=none;collapsible=0;dropTarget=0;points=[[0,0.5],[1,0.5]];portConstraint=eastwest;top=0;left=0;right=0;bottom=0;" parent="-osVBcc6kpc7iCXDjhJq-268" vertex="1">
          <mxGeometry y="80" width="280" height="30" as="geometry" />
        </mxCell>
        <mxCell id="-osVBcc6kpc7iCXDjhJq-276" value="" style="shape=partialRectangle;connectable=0;fillColor=none;top=0;left=0;bottom=0;right=0;editable=1;overflow=hidden;whiteSpace=wrap;html=1;" parent="-osVBcc6kpc7iCXDjhJq-275" vertex="1">
          <mxGeometry width="30" height="30" as="geometry">
            <mxRectangle width="30" height="30" as="alternateBounds" />
          </mxGeometry>
        </mxCell>
        <mxCell id="-osVBcc6kpc7iCXDjhJq-277" value="descricao&lt;span style=&quot;white-space: pre;&quot;&gt;&#x9;&lt;/span&gt;&lt;span style=&quot;white-space: pre;&quot;&gt;&#x9;&lt;/span&gt;TEXT&lt;span style=&quot;white-space: pre;&quot;&gt;&#x9;&lt;/span&gt;" style="shape=partialRectangle;connectable=0;fillColor=none;top=0;left=0;bottom=0;right=0;align=left;spacingLeft=6;overflow=hidden;whiteSpace=wrap;html=1;" parent="-osVBcc6kpc7iCXDjhJq-275" vertex="1">
          <mxGeometry x="30" width="250" height="30" as="geometry">
            <mxRectangle width="250" height="30" as="alternateBounds" />
          </mxGeometry>
        </mxCell>
        <mxCell id="-osVBcc6kpc7iCXDjhJq-278" value="Procedimentos_matrizes" style="shape=table;startSize=20;container=1;collapsible=1;childLayout=tableLayout;fixedRows=1;rowLines=0;fontStyle=1;align=center;resizeLast=1;html=1;" parent="1" vertex="1">
          <mxGeometry x="-620" y="-200" width="280" height="180" as="geometry">
            <mxRectangle x="180" y="-50" width="90" height="30" as="alternateBounds" />
          </mxGeometry>
        </mxCell>
        <mxCell id="-osVBcc6kpc7iCXDjhJq-279" value="" style="shape=tableRow;horizontal=0;startSize=0;swimlaneHead=0;swimlaneBody=0;fillColor=none;collapsible=0;dropTarget=0;points=[[0,0.5],[1,0.5]];portConstraint=eastwest;top=0;left=0;right=0;bottom=1;" parent="-osVBcc6kpc7iCXDjhJq-278" vertex="1">
          <mxGeometry y="20" width="280" height="30" as="geometry" />
        </mxCell>
        <mxCell id="-osVBcc6kpc7iCXDjhJq-280" value="PK" style="shape=partialRectangle;connectable=0;fillColor=none;top=0;left=0;bottom=0;right=0;fontStyle=1;overflow=hidden;whiteSpace=wrap;html=1;" parent="-osVBcc6kpc7iCXDjhJq-279" vertex="1">
          <mxGeometry width="30" height="30" as="geometry">
            <mxRectangle width="30" height="30" as="alternateBounds" />
          </mxGeometry>
        </mxCell>
        <mxCell id="-osVBcc6kpc7iCXDjhJq-281" value="id&lt;span style=&quot;white-space: pre;&quot;&gt;&#x9;&lt;/span&gt;&lt;span style=&quot;font-weight: 400;&quot;&gt;INT&lt;span style=&quot;white-space: pre;&quot;&gt;&#x9;&lt;/span&gt;AUTO_INCREMENT&lt;/span&gt;" style="shape=partialRectangle;connectable=0;fillColor=none;top=0;left=0;bottom=0;right=0;align=left;spacingLeft=6;fontStyle=5;overflow=hidden;whiteSpace=wrap;html=1;" parent="-osVBcc6kpc7iCXDjhJq-279" vertex="1">
          <mxGeometry x="30" width="250" height="30" as="geometry">
            <mxRectangle width="250" height="30" as="alternateBounds" />
          </mxGeometry>
        </mxCell>
        <mxCell id="-osVBcc6kpc7iCXDjhJq-282" value="" style="shape=tableRow;horizontal=0;startSize=0;swimlaneHead=0;swimlaneBody=0;fillColor=none;collapsible=0;dropTarget=0;points=[[0,0.5],[1,0.5]];portConstraint=eastwest;top=0;left=0;right=0;bottom=0;" parent="-osVBcc6kpc7iCXDjhJq-278" vertex="1">
          <mxGeometry y="50" width="280" height="30" as="geometry" />
        </mxCell>
        <mxCell id="-osVBcc6kpc7iCXDjhJq-283" value="FK" style="shape=partialRectangle;connectable=0;fillColor=none;top=0;left=0;bottom=0;right=0;fontStyle=0;overflow=hidden;whiteSpace=wrap;html=1;" parent="-osVBcc6kpc7iCXDjhJq-282" vertex="1">
          <mxGeometry width="30" height="30" as="geometry">
            <mxRectangle width="30" height="30" as="alternateBounds" />
          </mxGeometry>
        </mxCell>
        <mxCell id="-osVBcc6kpc7iCXDjhJq-284" value="matriz_id&lt;span style=&quot;white-space: pre;&quot;&gt;&#x9;&lt;/span&gt;INT" style="shape=partialRectangle;connectable=0;fillColor=none;top=0;left=0;bottom=0;right=0;align=left;spacingLeft=6;fontStyle=0;overflow=hidden;whiteSpace=wrap;html=1;" parent="-osVBcc6kpc7iCXDjhJq-282" vertex="1">
          <mxGeometry x="30" width="250" height="30" as="geometry">
            <mxRectangle width="250" height="30" as="alternateBounds" />
          </mxGeometry>
        </mxCell>
        <mxCell id="-osVBcc6kpc7iCXDjhJq-285" value="" style="shape=tableRow;horizontal=0;startSize=0;swimlaneHead=0;swimlaneBody=0;fillColor=none;collapsible=0;dropTarget=0;points=[[0,0.5],[1,0.5]];portConstraint=eastwest;top=0;left=0;right=0;bottom=0;" parent="-osVBcc6kpc7iCXDjhJq-278" vertex="1">
          <mxGeometry y="80" width="280" height="30" as="geometry" />
        </mxCell>
        <mxCell id="-osVBcc6kpc7iCXDjhJq-286" value="FK" style="shape=partialRectangle;connectable=0;fillColor=none;top=0;left=0;bottom=0;right=0;fontStyle=0;overflow=hidden;whiteSpace=wrap;html=1;" parent="-osVBcc6kpc7iCXDjhJq-285" vertex="1">
          <mxGeometry width="30" height="30" as="geometry">
            <mxRectangle width="30" height="30" as="alternateBounds" />
          </mxGeometry>
        </mxCell>
        <mxCell id="-osVBcc6kpc7iCXDjhJq-287" value="procedimento_id&lt;span style=&quot;white-space: pre;&quot;&gt;&#x9;&lt;/span&gt;INT" style="shape=partialRectangle;connectable=0;fillColor=none;top=0;left=0;bottom=0;right=0;align=left;spacingLeft=6;fontStyle=0;overflow=hidden;whiteSpace=wrap;html=1;" parent="-osVBcc6kpc7iCXDjhJq-285" vertex="1">
          <mxGeometry x="30" width="250" height="30" as="geometry">
            <mxRectangle width="250" height="30" as="alternateBounds" />
          </mxGeometry>
        </mxCell>
        <mxCell id="-osVBcc6kpc7iCXDjhJq-288" value="" style="shape=tableRow;horizontal=0;startSize=0;swimlaneHead=0;swimlaneBody=0;fillColor=none;collapsible=0;dropTarget=0;points=[[0,0.5],[1,0.5]];portConstraint=eastwest;top=0;left=0;right=0;bottom=0;" parent="-osVBcc6kpc7iCXDjhJq-278" vertex="1">
          <mxGeometry y="110" width="280" height="30" as="geometry" />
        </mxCell>
        <mxCell id="-osVBcc6kpc7iCXDjhJq-289" value="" style="shape=partialRectangle;connectable=0;fillColor=none;top=0;left=0;bottom=0;right=0;editable=1;overflow=hidden;" parent="-osVBcc6kpc7iCXDjhJq-288" vertex="1">
          <mxGeometry width="30" height="30" as="geometry">
            <mxRectangle width="30" height="30" as="alternateBounds" />
          </mxGeometry>
        </mxCell>
        <mxCell id="-osVBcc6kpc7iCXDjhJq-290" value="data_procedimento    DATE" style="shape=partialRectangle;connectable=0;fillColor=none;top=0;left=0;bottom=0;right=0;align=left;spacingLeft=6;overflow=hidden;" parent="-osVBcc6kpc7iCXDjhJq-288" vertex="1">
          <mxGeometry x="30" width="250" height="30" as="geometry">
            <mxRectangle width="250" height="30" as="alternateBounds" />
          </mxGeometry>
        </mxCell>
        <mxCell id="-osVBcc6kpc7iCXDjhJq-304" value="" style="shape=tableRow;horizontal=0;startSize=0;swimlaneHead=0;swimlaneBody=0;fillColor=none;collapsible=0;dropTarget=0;points=[[0,0.5],[1,0.5]];portConstraint=eastwest;top=0;left=0;right=0;bottom=0;" parent="-osVBcc6kpc7iCXDjhJq-278" vertex="1">
          <mxGeometry y="140" width="280" height="30" as="geometry" />
        </mxCell>
        <mxCell id="-osVBcc6kpc7iCXDjhJq-305" value="" style="shape=partialRectangle;connectable=0;fillColor=none;top=0;left=0;bottom=0;right=0;editable=1;overflow=hidden;" parent="-osVBcc6kpc7iCXDjhJq-304" vertex="1">
          <mxGeometry width="30" height="30" as="geometry">
            <mxRectangle width="30" height="30" as="alternateBounds" />
          </mxGeometry>
        </mxCell>
        <mxCell id="-osVBcc6kpc7iCXDjhJq-306" value="descricao    TEXT" style="shape=partialRectangle;connectable=0;fillColor=none;top=0;left=0;bottom=0;right=0;align=left;spacingLeft=6;overflow=hidden;" parent="-osVBcc6kpc7iCXDjhJq-304" vertex="1">
          <mxGeometry x="30" width="250" height="30" as="geometry">
            <mxRectangle width="250" height="30" as="alternateBounds" />
          </mxGeometry>
        </mxCell>
        <mxCell id="-osVBcc6kpc7iCXDjhJq-291" value="Procedimentos_crias" style="shape=table;startSize=20;container=1;collapsible=1;childLayout=tableLayout;fixedRows=1;rowLines=0;fontStyle=1;align=center;resizeLast=1;html=1;" parent="1" vertex="1">
          <mxGeometry x="340" y="-200" width="280" height="180" as="geometry">
            <mxRectangle x="180" y="-50" width="90" height="30" as="alternateBounds" />
          </mxGeometry>
        </mxCell>
        <mxCell id="-osVBcc6kpc7iCXDjhJq-292" value="" style="shape=tableRow;horizontal=0;startSize=0;swimlaneHead=0;swimlaneBody=0;fillColor=none;collapsible=0;dropTarget=0;points=[[0,0.5],[1,0.5]];portConstraint=eastwest;top=0;left=0;right=0;bottom=1;" parent="-osVBcc6kpc7iCXDjhJq-291" vertex="1">
          <mxGeometry y="20" width="280" height="30" as="geometry" />
        </mxCell>
        <mxCell id="-osVBcc6kpc7iCXDjhJq-293" value="PK" style="shape=partialRectangle;connectable=0;fillColor=none;top=0;left=0;bottom=0;right=0;fontStyle=1;overflow=hidden;whiteSpace=wrap;html=1;" parent="-osVBcc6kpc7iCXDjhJq-292" vertex="1">
          <mxGeometry width="30" height="30" as="geometry">
            <mxRectangle width="30" height="30" as="alternateBounds" />
          </mxGeometry>
        </mxCell>
        <mxCell id="-osVBcc6kpc7iCXDjhJq-294" value="id&lt;span style=&quot;white-space: pre;&quot;&gt;&#x9;&lt;/span&gt;&lt;span style=&quot;font-weight: 400;&quot;&gt;INT&lt;span style=&quot;white-space: pre;&quot;&gt;&#x9;&lt;/span&gt;AUTO_INCREMENT&lt;/span&gt;" style="shape=partialRectangle;connectable=0;fillColor=none;top=0;left=0;bottom=0;right=0;align=left;spacingLeft=6;fontStyle=5;overflow=hidden;whiteSpace=wrap;html=1;" parent="-osVBcc6kpc7iCXDjhJq-292" vertex="1">
          <mxGeometry x="30" width="250" height="30" as="geometry">
            <mxRectangle width="250" height="30" as="alternateBounds" />
          </mxGeometry>
        </mxCell>
        <mxCell id="-osVBcc6kpc7iCXDjhJq-295" value="" style="shape=tableRow;horizontal=0;startSize=0;swimlaneHead=0;swimlaneBody=0;fillColor=none;collapsible=0;dropTarget=0;points=[[0,0.5],[1,0.5]];portConstraint=eastwest;top=0;left=0;right=0;bottom=0;" parent="-osVBcc6kpc7iCXDjhJq-291" vertex="1">
          <mxGeometry y="50" width="280" height="30" as="geometry" />
        </mxCell>
        <mxCell id="-osVBcc6kpc7iCXDjhJq-296" value="FK" style="shape=partialRectangle;connectable=0;fillColor=none;top=0;left=0;bottom=0;right=0;fontStyle=0;overflow=hidden;whiteSpace=wrap;html=1;" parent="-osVBcc6kpc7iCXDjhJq-295" vertex="1">
          <mxGeometry width="30" height="30" as="geometry">
            <mxRectangle width="30" height="30" as="alternateBounds" />
          </mxGeometry>
        </mxCell>
        <mxCell id="-osVBcc6kpc7iCXDjhJq-297" value="cria_id&lt;span style=&quot;white-space: pre;&quot;&gt;&#x9;&lt;/span&gt;INT" style="shape=partialRectangle;connectable=0;fillColor=none;top=0;left=0;bottom=0;right=0;align=left;spacingLeft=6;fontStyle=0;overflow=hidden;whiteSpace=wrap;html=1;" parent="-osVBcc6kpc7iCXDjhJq-295" vertex="1">
          <mxGeometry x="30" width="250" height="30" as="geometry">
            <mxRectangle width="250" height="30" as="alternateBounds" />
          </mxGeometry>
        </mxCell>
        <mxCell id="-osVBcc6kpc7iCXDjhJq-298" value="" style="shape=tableRow;horizontal=0;startSize=0;swimlaneHead=0;swimlaneBody=0;fillColor=none;collapsible=0;dropTarget=0;points=[[0,0.5],[1,0.5]];portConstraint=eastwest;top=0;left=0;right=0;bottom=0;" parent="-osVBcc6kpc7iCXDjhJq-291" vertex="1">
          <mxGeometry y="80" width="280" height="30" as="geometry" />
        </mxCell>
        <mxCell id="-osVBcc6kpc7iCXDjhJq-299" value="FK" style="shape=partialRectangle;connectable=0;fillColor=none;top=0;left=0;bottom=0;right=0;fontStyle=0;overflow=hidden;whiteSpace=wrap;html=1;" parent="-osVBcc6kpc7iCXDjhJq-298" vertex="1">
          <mxGeometry width="30" height="30" as="geometry">
            <mxRectangle width="30" height="30" as="alternateBounds" />
          </mxGeometry>
        </mxCell>
        <mxCell id="-osVBcc6kpc7iCXDjhJq-300" value="procedimento_id&lt;span style=&quot;white-space: pre;&quot;&gt;&#x9;&lt;/span&gt;INT" style="shape=partialRectangle;connectable=0;fillColor=none;top=0;left=0;bottom=0;right=0;align=left;spacingLeft=6;fontStyle=0;overflow=hidden;whiteSpace=wrap;html=1;" parent="-osVBcc6kpc7iCXDjhJq-298" vertex="1">
          <mxGeometry x="30" width="250" height="30" as="geometry">
            <mxRectangle width="250" height="30" as="alternateBounds" />
          </mxGeometry>
        </mxCell>
        <mxCell id="-osVBcc6kpc7iCXDjhJq-301" value="" style="shape=tableRow;horizontal=0;startSize=0;swimlaneHead=0;swimlaneBody=0;fillColor=none;collapsible=0;dropTarget=0;points=[[0,0.5],[1,0.5]];portConstraint=eastwest;top=0;left=0;right=0;bottom=0;" parent="-osVBcc6kpc7iCXDjhJq-291" vertex="1">
          <mxGeometry y="110" width="280" height="30" as="geometry" />
        </mxCell>
        <mxCell id="-osVBcc6kpc7iCXDjhJq-302" value="" style="shape=partialRectangle;connectable=0;fillColor=none;top=0;left=0;bottom=0;right=0;editable=1;overflow=hidden;" parent="-osVBcc6kpc7iCXDjhJq-301" vertex="1">
          <mxGeometry width="30" height="30" as="geometry">
            <mxRectangle width="30" height="30" as="alternateBounds" />
          </mxGeometry>
        </mxCell>
        <mxCell id="-osVBcc6kpc7iCXDjhJq-303" value="data_procedimento    DATE" style="shape=partialRectangle;connectable=0;fillColor=none;top=0;left=0;bottom=0;right=0;align=left;spacingLeft=6;overflow=hidden;" parent="-osVBcc6kpc7iCXDjhJq-301" vertex="1">
          <mxGeometry x="30" width="250" height="30" as="geometry">
            <mxRectangle width="250" height="30" as="alternateBounds" />
          </mxGeometry>
        </mxCell>
        <mxCell id="-osVBcc6kpc7iCXDjhJq-311" value="" style="shape=tableRow;horizontal=0;startSize=0;swimlaneHead=0;swimlaneBody=0;fillColor=none;collapsible=0;dropTarget=0;points=[[0,0.5],[1,0.5]];portConstraint=eastwest;top=0;left=0;right=0;bottom=0;" parent="-osVBcc6kpc7iCXDjhJq-291" vertex="1">
          <mxGeometry y="140" width="280" height="30" as="geometry" />
        </mxCell>
        <mxCell id="-osVBcc6kpc7iCXDjhJq-312" value="" style="shape=partialRectangle;connectable=0;fillColor=none;top=0;left=0;bottom=0;right=0;editable=1;overflow=hidden;" parent="-osVBcc6kpc7iCXDjhJq-311" vertex="1">
          <mxGeometry width="30" height="30" as="geometry">
            <mxRectangle width="30" height="30" as="alternateBounds" />
          </mxGeometry>
        </mxCell>
        <mxCell id="-osVBcc6kpc7iCXDjhJq-313" value="descricao    TEXT" style="shape=partialRectangle;connectable=0;fillColor=none;top=0;left=0;bottom=0;right=0;align=left;spacingLeft=6;overflow=hidden;" parent="-osVBcc6kpc7iCXDjhJq-311" vertex="1">
          <mxGeometry x="30" width="250" height="30" as="geometry">
            <mxRectangle width="250" height="30" as="alternateBounds" />
          </mxGeometry>
        </mxCell>
        <mxCell id="-osVBcc6kpc7iCXDjhJq-314" value="" style="edgeStyle=elbowEdgeStyle;fontSize=12;html=1;endArrow=ERzeroToMany;endFill=1;rounded=0;entryX=1;entryY=0.5;entryDx=0;entryDy=0;exitX=0;exitY=0.5;exitDx=0;exitDy=0;" parent="1" source="-osVBcc6kpc7iCXDjhJq-269" target="-osVBcc6kpc7iCXDjhJq-285" edge="1">
          <mxGeometry width="100" height="100" relative="1" as="geometry">
            <mxPoint x="60" y="180" as="sourcePoint" />
            <mxPoint x="160" y="80" as="targetPoint" />
            <Array as="points">
              <mxPoint x="-240" y="-170" />
            </Array>
          </mxGeometry>
        </mxCell>
        <mxCell id="-osVBcc6kpc7iCXDjhJq-315" value="" style="edgeStyle=elbowEdgeStyle;fontSize=12;html=1;endArrow=ERzeroToMany;endFill=1;rounded=0;entryX=0;entryY=0.5;entryDx=0;entryDy=0;exitX=1;exitY=0.25;exitDx=0;exitDy=0;" parent="1" source="-osVBcc6kpc7iCXDjhJq-268" target="-osVBcc6kpc7iCXDjhJq-298" edge="1">
          <mxGeometry width="100" height="100" relative="1" as="geometry">
            <mxPoint x="90" y="-105" as="sourcePoint" />
            <mxPoint x="-315" y="265" as="targetPoint" />
            <Array as="points" />
          </mxGeometry>
        </mxCell>
        <mxCell id="-osVBcc6kpc7iCXDjhJq-316" value="" style="edgeStyle=elbowEdgeStyle;fontSize=12;html=1;endArrow=ERzeroToMany;endFill=1;rounded=0;entryX=0;entryY=0.5;entryDx=0;entryDy=0;exitX=0;exitY=0.5;exitDx=0;exitDy=0;" parent="1" source="-osVBcc6kpc7iCXDjhJq-87" target="-osVBcc6kpc7iCXDjhJq-282" edge="1">
          <mxGeometry width="100" height="100" relative="1" as="geometry">
            <mxPoint x="-270" y="-460" as="sourcePoint" />
            <mxPoint x="-195" y="265" as="targetPoint" />
            <Array as="points">
              <mxPoint x="-670" y="-380" />
            </Array>
          </mxGeometry>
        </mxCell>
        <mxCell id="-osVBcc6kpc7iCXDjhJq-317" value="" style="edgeStyle=elbowEdgeStyle;fontSize=12;html=1;endArrow=ERzeroToMany;endFill=1;rounded=0;entryX=1;entryY=0.5;entryDx=0;entryDy=0;exitX=1;exitY=0.5;exitDx=0;exitDy=0;" parent="1" source="-osVBcc6kpc7iCXDjhJq-157" target="-osVBcc6kpc7iCXDjhJq-295" edge="1">
          <mxGeometry width="100" height="100" relative="1" as="geometry">
            <mxPoint x="-295" y="45" as="sourcePoint" />
            <mxPoint x="-295" y="285" as="targetPoint" />
            <Array as="points">
              <mxPoint x="660" y="-350" />
            </Array>
          </mxGeometry>
        </mxCell>
        <mxCell id="Tb4A12UNGiTUDy-k_EDc-1" value="Alimentos" style="shape=table;startSize=20;container=1;collapsible=1;childLayout=tableLayout;fixedRows=1;rowLines=0;fontStyle=1;align=center;resizeLast=1;html=1;" parent="1" vertex="1">
          <mxGeometry x="-140" y="40" width="280" height="150" as="geometry">
            <mxRectangle x="-140" y="120" width="90" height="30" as="alternateBounds" />
          </mxGeometry>
        </mxCell>
        <mxCell id="Tb4A12UNGiTUDy-k_EDc-2" value="" style="shape=tableRow;horizontal=0;startSize=0;swimlaneHead=0;swimlaneBody=0;fillColor=none;collapsible=0;dropTarget=0;points=[[0,0.5],[1,0.5]];portConstraint=eastwest;top=0;left=0;right=0;bottom=1;" parent="Tb4A12UNGiTUDy-k_EDc-1" vertex="1">
          <mxGeometry y="20" width="280" height="30" as="geometry" />
        </mxCell>
        <mxCell id="Tb4A12UNGiTUDy-k_EDc-3" value="PK" style="shape=partialRectangle;connectable=0;fillColor=none;top=0;left=0;bottom=0;right=0;fontStyle=1;overflow=hidden;whiteSpace=wrap;html=1;" parent="Tb4A12UNGiTUDy-k_EDc-2" vertex="1">
          <mxGeometry width="30" height="30" as="geometry">
            <mxRectangle width="30" height="30" as="alternateBounds" />
          </mxGeometry>
        </mxCell>
        <mxCell id="Tb4A12UNGiTUDy-k_EDc-4" value="id&lt;span style=&quot;white-space: pre;&quot;&gt;&#x9;&lt;/span&gt;&lt;span style=&quot;font-weight: 400;&quot;&gt;INT&lt;span style=&quot;white-space: pre;&quot;&gt;&#x9;&lt;/span&gt;AUTO_INCREMENT&lt;/span&gt;" style="shape=partialRectangle;connectable=0;fillColor=none;top=0;left=0;bottom=0;right=0;align=left;spacingLeft=6;fontStyle=5;overflow=hidden;whiteSpace=wrap;html=1;" parent="Tb4A12UNGiTUDy-k_EDc-2" vertex="1">
          <mxGeometry x="30" width="250" height="30" as="geometry">
            <mxRectangle width="250" height="30" as="alternateBounds" />
          </mxGeometry>
        </mxCell>
        <mxCell id="Tb4A12UNGiTUDy-k_EDc-5" value="" style="shape=tableRow;horizontal=0;startSize=0;swimlaneHead=0;swimlaneBody=0;fillColor=none;collapsible=0;dropTarget=0;points=[[0,0.5],[1,0.5]];portConstraint=eastwest;top=0;left=0;right=0;bottom=0;" parent="Tb4A12UNGiTUDy-k_EDc-1" vertex="1">
          <mxGeometry y="50" width="280" height="30" as="geometry" />
        </mxCell>
        <mxCell id="Tb4A12UNGiTUDy-k_EDc-6" value="" style="shape=partialRectangle;connectable=0;fillColor=none;top=0;left=0;bottom=0;right=0;editable=1;overflow=hidden;whiteSpace=wrap;html=1;" parent="Tb4A12UNGiTUDy-k_EDc-5" vertex="1">
          <mxGeometry width="30" height="30" as="geometry">
            <mxRectangle width="30" height="30" as="alternateBounds" />
          </mxGeometry>
        </mxCell>
        <mxCell id="Tb4A12UNGiTUDy-k_EDc-7" value="nome&lt;span style=&quot;white-space: pre;&quot;&gt;&#x9;&lt;/span&gt;VARCHAR(50)&lt;span style=&quot;white-space: pre;&quot;&gt;&#x9;&lt;/span&gt;NOT NULL" style="shape=partialRectangle;connectable=0;fillColor=none;top=0;left=0;bottom=0;right=0;align=left;spacingLeft=6;overflow=hidden;whiteSpace=wrap;html=1;" parent="Tb4A12UNGiTUDy-k_EDc-5" vertex="1">
          <mxGeometry x="30" width="250" height="30" as="geometry">
            <mxRectangle width="250" height="30" as="alternateBounds" />
          </mxGeometry>
        </mxCell>
        <mxCell id="Tb4A12UNGiTUDy-k_EDc-8" value="" style="shape=tableRow;horizontal=0;startSize=0;swimlaneHead=0;swimlaneBody=0;fillColor=none;collapsible=0;dropTarget=0;points=[[0,0.5],[1,0.5]];portConstraint=eastwest;top=0;left=0;right=0;bottom=0;" parent="Tb4A12UNGiTUDy-k_EDc-1" vertex="1">
          <mxGeometry y="80" width="280" height="30" as="geometry" />
        </mxCell>
        <mxCell id="Tb4A12UNGiTUDy-k_EDc-9" value="" style="shape=partialRectangle;connectable=0;fillColor=none;top=0;left=0;bottom=0;right=0;editable=1;overflow=hidden;whiteSpace=wrap;html=1;" parent="Tb4A12UNGiTUDy-k_EDc-8" vertex="1">
          <mxGeometry width="30" height="30" as="geometry">
            <mxRectangle width="30" height="30" as="alternateBounds" />
          </mxGeometry>
        </mxCell>
        <mxCell id="Tb4A12UNGiTUDy-k_EDc-10" value="descricao&lt;span style=&quot;white-space: pre;&quot;&gt;&#x9;&lt;/span&gt;&lt;span style=&quot;white-space: pre;&quot;&gt;&#x9;&lt;/span&gt;TEXT&lt;span style=&quot;white-space: pre;&quot;&gt;&#x9;&lt;/span&gt;" style="shape=partialRectangle;connectable=0;fillColor=none;top=0;left=0;bottom=0;right=0;align=left;spacingLeft=6;overflow=hidden;whiteSpace=wrap;html=1;" parent="Tb4A12UNGiTUDy-k_EDc-8" vertex="1">
          <mxGeometry x="30" width="250" height="30" as="geometry">
            <mxRectangle width="250" height="30" as="alternateBounds" />
          </mxGeometry>
        </mxCell>
        <mxCell id="Tb4A12UNGiTUDy-k_EDc-43" value="" style="shape=tableRow;horizontal=0;startSize=0;swimlaneHead=0;swimlaneBody=0;fillColor=none;collapsible=0;dropTarget=0;points=[[0,0.5],[1,0.5]];portConstraint=eastwest;top=0;left=0;right=0;bottom=0;" parent="Tb4A12UNGiTUDy-k_EDc-1" vertex="1">
          <mxGeometry y="110" width="280" height="30" as="geometry" />
        </mxCell>
        <mxCell id="Tb4A12UNGiTUDy-k_EDc-44" value="" style="shape=partialRectangle;connectable=0;fillColor=none;top=0;left=0;bottom=0;right=0;editable=1;overflow=hidden;" parent="Tb4A12UNGiTUDy-k_EDc-43" vertex="1">
          <mxGeometry width="30" height="30" as="geometry">
            <mxRectangle width="30" height="30" as="alternateBounds" />
          </mxGeometry>
        </mxCell>
        <mxCell id="Tb4A12UNGiTUDy-k_EDc-45" value="tipo_alimento    VARCHAR(50)" style="shape=partialRectangle;connectable=0;fillColor=none;top=0;left=0;bottom=0;right=0;align=left;spacingLeft=6;overflow=hidden;" parent="Tb4A12UNGiTUDy-k_EDc-43" vertex="1">
          <mxGeometry x="30" width="250" height="30" as="geometry">
            <mxRectangle width="250" height="30" as="alternateBounds" />
          </mxGeometry>
        </mxCell>
        <mxCell id="Tb4A12UNGiTUDy-k_EDc-11" value="Alimentos_matrizes" style="shape=table;startSize=20;container=1;collapsible=1;childLayout=tableLayout;fixedRows=1;rowLines=0;fontStyle=1;align=center;resizeLast=1;html=1;" parent="1" vertex="1">
          <mxGeometry x="-620" y="40" width="280" height="180" as="geometry">
            <mxRectangle x="180" y="-50" width="90" height="30" as="alternateBounds" />
          </mxGeometry>
        </mxCell>
        <mxCell id="Tb4A12UNGiTUDy-k_EDc-12" value="" style="shape=tableRow;horizontal=0;startSize=0;swimlaneHead=0;swimlaneBody=0;fillColor=none;collapsible=0;dropTarget=0;points=[[0,0.5],[1,0.5]];portConstraint=eastwest;top=0;left=0;right=0;bottom=1;" parent="Tb4A12UNGiTUDy-k_EDc-11" vertex="1">
          <mxGeometry y="20" width="280" height="30" as="geometry" />
        </mxCell>
        <mxCell id="Tb4A12UNGiTUDy-k_EDc-13" value="PK" style="shape=partialRectangle;connectable=0;fillColor=none;top=0;left=0;bottom=0;right=0;fontStyle=1;overflow=hidden;whiteSpace=wrap;html=1;" parent="Tb4A12UNGiTUDy-k_EDc-12" vertex="1">
          <mxGeometry width="30" height="30" as="geometry">
            <mxRectangle width="30" height="30" as="alternateBounds" />
          </mxGeometry>
        </mxCell>
        <mxCell id="Tb4A12UNGiTUDy-k_EDc-14" value="id&lt;span style=&quot;white-space: pre;&quot;&gt;&#x9;&lt;/span&gt;&lt;span style=&quot;font-weight: 400;&quot;&gt;INT&lt;span style=&quot;white-space: pre;&quot;&gt;&#x9;&lt;/span&gt;AUTO_INCREMENT&lt;/span&gt;" style="shape=partialRectangle;connectable=0;fillColor=none;top=0;left=0;bottom=0;right=0;align=left;spacingLeft=6;fontStyle=5;overflow=hidden;whiteSpace=wrap;html=1;" parent="Tb4A12UNGiTUDy-k_EDc-12" vertex="1">
          <mxGeometry x="30" width="250" height="30" as="geometry">
            <mxRectangle width="250" height="30" as="alternateBounds" />
          </mxGeometry>
        </mxCell>
        <mxCell id="Tb4A12UNGiTUDy-k_EDc-15" value="" style="shape=tableRow;horizontal=0;startSize=0;swimlaneHead=0;swimlaneBody=0;fillColor=none;collapsible=0;dropTarget=0;points=[[0,0.5],[1,0.5]];portConstraint=eastwest;top=0;left=0;right=0;bottom=0;" parent="Tb4A12UNGiTUDy-k_EDc-11" vertex="1">
          <mxGeometry y="50" width="280" height="30" as="geometry" />
        </mxCell>
        <mxCell id="Tb4A12UNGiTUDy-k_EDc-16" value="FK" style="shape=partialRectangle;connectable=0;fillColor=none;top=0;left=0;bottom=0;right=0;fontStyle=0;overflow=hidden;whiteSpace=wrap;html=1;" parent="Tb4A12UNGiTUDy-k_EDc-15" vertex="1">
          <mxGeometry width="30" height="30" as="geometry">
            <mxRectangle width="30" height="30" as="alternateBounds" />
          </mxGeometry>
        </mxCell>
        <mxCell id="Tb4A12UNGiTUDy-k_EDc-17" value="matriz_id&lt;span style=&quot;white-space: pre;&quot;&gt;&#x9;&lt;/span&gt;INT" style="shape=partialRectangle;connectable=0;fillColor=none;top=0;left=0;bottom=0;right=0;align=left;spacingLeft=6;fontStyle=0;overflow=hidden;whiteSpace=wrap;html=1;" parent="Tb4A12UNGiTUDy-k_EDc-15" vertex="1">
          <mxGeometry x="30" width="250" height="30" as="geometry">
            <mxRectangle width="250" height="30" as="alternateBounds" />
          </mxGeometry>
        </mxCell>
        <mxCell id="Tb4A12UNGiTUDy-k_EDc-18" value="" style="shape=tableRow;horizontal=0;startSize=0;swimlaneHead=0;swimlaneBody=0;fillColor=none;collapsible=0;dropTarget=0;points=[[0,0.5],[1,0.5]];portConstraint=eastwest;top=0;left=0;right=0;bottom=0;" parent="Tb4A12UNGiTUDy-k_EDc-11" vertex="1">
          <mxGeometry y="80" width="280" height="30" as="geometry" />
        </mxCell>
        <mxCell id="Tb4A12UNGiTUDy-k_EDc-19" value="FK" style="shape=partialRectangle;connectable=0;fillColor=none;top=0;left=0;bottom=0;right=0;fontStyle=0;overflow=hidden;whiteSpace=wrap;html=1;" parent="Tb4A12UNGiTUDy-k_EDc-18" vertex="1">
          <mxGeometry width="30" height="30" as="geometry">
            <mxRectangle width="30" height="30" as="alternateBounds" />
          </mxGeometry>
        </mxCell>
        <mxCell id="Tb4A12UNGiTUDy-k_EDc-20" value="alimento_id&lt;span style=&quot;white-space: pre;&quot;&gt;&#x9;&lt;/span&gt;INT" style="shape=partialRectangle;connectable=0;fillColor=none;top=0;left=0;bottom=0;right=0;align=left;spacingLeft=6;fontStyle=0;overflow=hidden;whiteSpace=wrap;html=1;" parent="Tb4A12UNGiTUDy-k_EDc-18" vertex="1">
          <mxGeometry x="30" width="250" height="30" as="geometry">
            <mxRectangle width="250" height="30" as="alternateBounds" />
          </mxGeometry>
        </mxCell>
        <mxCell id="Tb4A12UNGiTUDy-k_EDc-21" value="" style="shape=tableRow;horizontal=0;startSize=0;swimlaneHead=0;swimlaneBody=0;fillColor=none;collapsible=0;dropTarget=0;points=[[0,0.5],[1,0.5]];portConstraint=eastwest;top=0;left=0;right=0;bottom=0;" parent="Tb4A12UNGiTUDy-k_EDc-11" vertex="1">
          <mxGeometry y="110" width="280" height="30" as="geometry" />
        </mxCell>
        <mxCell id="Tb4A12UNGiTUDy-k_EDc-22" value="" style="shape=partialRectangle;connectable=0;fillColor=none;top=0;left=0;bottom=0;right=0;editable=1;overflow=hidden;" parent="Tb4A12UNGiTUDy-k_EDc-21" vertex="1">
          <mxGeometry width="30" height="30" as="geometry">
            <mxRectangle width="30" height="30" as="alternateBounds" />
          </mxGeometry>
        </mxCell>
        <mxCell id="Tb4A12UNGiTUDy-k_EDc-23" value="data_alimentacao    DATE" style="shape=partialRectangle;connectable=0;fillColor=none;top=0;left=0;bottom=0;right=0;align=left;spacingLeft=6;overflow=hidden;" parent="Tb4A12UNGiTUDy-k_EDc-21" vertex="1">
          <mxGeometry x="30" width="250" height="30" as="geometry">
            <mxRectangle width="250" height="30" as="alternateBounds" />
          </mxGeometry>
        </mxCell>
        <mxCell id="Tb4A12UNGiTUDy-k_EDc-24" value="" style="shape=tableRow;horizontal=0;startSize=0;swimlaneHead=0;swimlaneBody=0;fillColor=none;collapsible=0;dropTarget=0;points=[[0,0.5],[1,0.5]];portConstraint=eastwest;top=0;left=0;right=0;bottom=0;" parent="Tb4A12UNGiTUDy-k_EDc-11" vertex="1">
          <mxGeometry y="140" width="280" height="30" as="geometry" />
        </mxCell>
        <mxCell id="Tb4A12UNGiTUDy-k_EDc-25" value="" style="shape=partialRectangle;connectable=0;fillColor=none;top=0;left=0;bottom=0;right=0;editable=1;overflow=hidden;" parent="Tb4A12UNGiTUDy-k_EDc-24" vertex="1">
          <mxGeometry width="30" height="30" as="geometry">
            <mxRectangle width="30" height="30" as="alternateBounds" />
          </mxGeometry>
        </mxCell>
        <mxCell id="Tb4A12UNGiTUDy-k_EDc-26" value="quantidade    DECIMAL(5,2)" style="shape=partialRectangle;connectable=0;fillColor=none;top=0;left=0;bottom=0;right=0;align=left;spacingLeft=6;overflow=hidden;" parent="Tb4A12UNGiTUDy-k_EDc-24" vertex="1">
          <mxGeometry x="30" width="250" height="30" as="geometry">
            <mxRectangle width="250" height="30" as="alternateBounds" />
          </mxGeometry>
        </mxCell>
        <mxCell id="Tb4A12UNGiTUDy-k_EDc-27" value="Alimentos_crias" style="shape=table;startSize=20;container=1;collapsible=1;childLayout=tableLayout;fixedRows=1;rowLines=0;fontStyle=1;align=center;resizeLast=1;html=1;" parent="1" vertex="1">
          <mxGeometry x="340" y="40" width="280" height="180" as="geometry">
            <mxRectangle x="180" y="-50" width="90" height="30" as="alternateBounds" />
          </mxGeometry>
        </mxCell>
        <mxCell id="Tb4A12UNGiTUDy-k_EDc-28" value="" style="shape=tableRow;horizontal=0;startSize=0;swimlaneHead=0;swimlaneBody=0;fillColor=none;collapsible=0;dropTarget=0;points=[[0,0.5],[1,0.5]];portConstraint=eastwest;top=0;left=0;right=0;bottom=1;" parent="Tb4A12UNGiTUDy-k_EDc-27" vertex="1">
          <mxGeometry y="20" width="280" height="30" as="geometry" />
        </mxCell>
        <mxCell id="Tb4A12UNGiTUDy-k_EDc-29" value="PK" style="shape=partialRectangle;connectable=0;fillColor=none;top=0;left=0;bottom=0;right=0;fontStyle=1;overflow=hidden;whiteSpace=wrap;html=1;" parent="Tb4A12UNGiTUDy-k_EDc-28" vertex="1">
          <mxGeometry width="30" height="30" as="geometry">
            <mxRectangle width="30" height="30" as="alternateBounds" />
          </mxGeometry>
        </mxCell>
        <mxCell id="Tb4A12UNGiTUDy-k_EDc-30" value="id&lt;span style=&quot;white-space: pre;&quot;&gt;&#x9;&lt;/span&gt;&lt;span style=&quot;font-weight: 400;&quot;&gt;INT&lt;span style=&quot;white-space: pre;&quot;&gt;&#x9;&lt;/span&gt;AUTO_INCREMENT&lt;/span&gt;" style="shape=partialRectangle;connectable=0;fillColor=none;top=0;left=0;bottom=0;right=0;align=left;spacingLeft=6;fontStyle=5;overflow=hidden;whiteSpace=wrap;html=1;" parent="Tb4A12UNGiTUDy-k_EDc-28" vertex="1">
          <mxGeometry x="30" width="250" height="30" as="geometry">
            <mxRectangle width="250" height="30" as="alternateBounds" />
          </mxGeometry>
        </mxCell>
        <mxCell id="Tb4A12UNGiTUDy-k_EDc-31" value="" style="shape=tableRow;horizontal=0;startSize=0;swimlaneHead=0;swimlaneBody=0;fillColor=none;collapsible=0;dropTarget=0;points=[[0,0.5],[1,0.5]];portConstraint=eastwest;top=0;left=0;right=0;bottom=0;" parent="Tb4A12UNGiTUDy-k_EDc-27" vertex="1">
          <mxGeometry y="50" width="280" height="30" as="geometry" />
        </mxCell>
        <mxCell id="Tb4A12UNGiTUDy-k_EDc-32" value="FK" style="shape=partialRectangle;connectable=0;fillColor=none;top=0;left=0;bottom=0;right=0;fontStyle=0;overflow=hidden;whiteSpace=wrap;html=1;" parent="Tb4A12UNGiTUDy-k_EDc-31" vertex="1">
          <mxGeometry width="30" height="30" as="geometry">
            <mxRectangle width="30" height="30" as="alternateBounds" />
          </mxGeometry>
        </mxCell>
        <mxCell id="Tb4A12UNGiTUDy-k_EDc-33" value="cria_id&lt;span style=&quot;white-space: pre;&quot;&gt;&#x9;&lt;/span&gt;INT" style="shape=partialRectangle;connectable=0;fillColor=none;top=0;left=0;bottom=0;right=0;align=left;spacingLeft=6;fontStyle=0;overflow=hidden;whiteSpace=wrap;html=1;" parent="Tb4A12UNGiTUDy-k_EDc-31" vertex="1">
          <mxGeometry x="30" width="250" height="30" as="geometry">
            <mxRectangle width="250" height="30" as="alternateBounds" />
          </mxGeometry>
        </mxCell>
        <mxCell id="Tb4A12UNGiTUDy-k_EDc-34" value="" style="shape=tableRow;horizontal=0;startSize=0;swimlaneHead=0;swimlaneBody=0;fillColor=none;collapsible=0;dropTarget=0;points=[[0,0.5],[1,0.5]];portConstraint=eastwest;top=0;left=0;right=0;bottom=0;" parent="Tb4A12UNGiTUDy-k_EDc-27" vertex="1">
          <mxGeometry y="80" width="280" height="30" as="geometry" />
        </mxCell>
        <mxCell id="Tb4A12UNGiTUDy-k_EDc-35" value="FK" style="shape=partialRectangle;connectable=0;fillColor=none;top=0;left=0;bottom=0;right=0;fontStyle=0;overflow=hidden;whiteSpace=wrap;html=1;" parent="Tb4A12UNGiTUDy-k_EDc-34" vertex="1">
          <mxGeometry width="30" height="30" as="geometry">
            <mxRectangle width="30" height="30" as="alternateBounds" />
          </mxGeometry>
        </mxCell>
        <mxCell id="Tb4A12UNGiTUDy-k_EDc-36" value="alimento_id&lt;span style=&quot;white-space: pre;&quot;&gt;&#x9;&lt;/span&gt;INT" style="shape=partialRectangle;connectable=0;fillColor=none;top=0;left=0;bottom=0;right=0;align=left;spacingLeft=6;fontStyle=0;overflow=hidden;whiteSpace=wrap;html=1;" parent="Tb4A12UNGiTUDy-k_EDc-34" vertex="1">
          <mxGeometry x="30" width="250" height="30" as="geometry">
            <mxRectangle width="250" height="30" as="alternateBounds" />
          </mxGeometry>
        </mxCell>
        <mxCell id="Tb4A12UNGiTUDy-k_EDc-37" value="" style="shape=tableRow;horizontal=0;startSize=0;swimlaneHead=0;swimlaneBody=0;fillColor=none;collapsible=0;dropTarget=0;points=[[0,0.5],[1,0.5]];portConstraint=eastwest;top=0;left=0;right=0;bottom=0;" parent="Tb4A12UNGiTUDy-k_EDc-27" vertex="1">
          <mxGeometry y="110" width="280" height="30" as="geometry" />
        </mxCell>
        <mxCell id="Tb4A12UNGiTUDy-k_EDc-38" value="" style="shape=partialRectangle;connectable=0;fillColor=none;top=0;left=0;bottom=0;right=0;editable=1;overflow=hidden;" parent="Tb4A12UNGiTUDy-k_EDc-37" vertex="1">
          <mxGeometry width="30" height="30" as="geometry">
            <mxRectangle width="30" height="30" as="alternateBounds" />
          </mxGeometry>
        </mxCell>
        <mxCell id="Tb4A12UNGiTUDy-k_EDc-39" value="data_alimentacao    DATE" style="shape=partialRectangle;connectable=0;fillColor=none;top=0;left=0;bottom=0;right=0;align=left;spacingLeft=6;overflow=hidden;" parent="Tb4A12UNGiTUDy-k_EDc-37" vertex="1">
          <mxGeometry x="30" width="250" height="30" as="geometry">
            <mxRectangle width="250" height="30" as="alternateBounds" />
          </mxGeometry>
        </mxCell>
        <mxCell id="Tb4A12UNGiTUDy-k_EDc-40" value="" style="shape=tableRow;horizontal=0;startSize=0;swimlaneHead=0;swimlaneBody=0;fillColor=none;collapsible=0;dropTarget=0;points=[[0,0.5],[1,0.5]];portConstraint=eastwest;top=0;left=0;right=0;bottom=0;" parent="Tb4A12UNGiTUDy-k_EDc-27" vertex="1">
          <mxGeometry y="140" width="280" height="30" as="geometry" />
        </mxCell>
        <mxCell id="Tb4A12UNGiTUDy-k_EDc-41" value="" style="shape=partialRectangle;connectable=0;fillColor=none;top=0;left=0;bottom=0;right=0;editable=1;overflow=hidden;" parent="Tb4A12UNGiTUDy-k_EDc-40" vertex="1">
          <mxGeometry width="30" height="30" as="geometry">
            <mxRectangle width="30" height="30" as="alternateBounds" />
          </mxGeometry>
        </mxCell>
        <mxCell id="Tb4A12UNGiTUDy-k_EDc-42" value="quantidade    DECIMAL(5,2)" style="shape=partialRectangle;connectable=0;fillColor=none;top=0;left=0;bottom=0;right=0;align=left;spacingLeft=6;overflow=hidden;" parent="Tb4A12UNGiTUDy-k_EDc-40" vertex="1">
          <mxGeometry x="30" width="250" height="30" as="geometry">
            <mxRectangle width="250" height="30" as="alternateBounds" />
          </mxGeometry>
        </mxCell>
        <mxCell id="Tb4A12UNGiTUDy-k_EDc-46" value="" style="edgeStyle=elbowEdgeStyle;fontSize=12;html=1;endArrow=ERzeroToMany;endFill=1;rounded=0;entryX=1;entryY=0.5;entryDx=0;entryDy=0;exitX=0;exitY=0.5;exitDx=0;exitDy=0;" parent="1" source="Tb4A12UNGiTUDy-k_EDc-2" target="Tb4A12UNGiTUDy-k_EDc-18" edge="1">
          <mxGeometry width="100" height="100" relative="1" as="geometry">
            <mxPoint x="-245" y="390" as="sourcePoint" />
            <mxPoint x="-245" y="630" as="targetPoint" />
            <Array as="points">
              <mxPoint x="-240" y="70" />
            </Array>
          </mxGeometry>
        </mxCell>
        <mxCell id="Tb4A12UNGiTUDy-k_EDc-47" value="" style="edgeStyle=elbowEdgeStyle;fontSize=12;html=1;endArrow=ERzeroToMany;endFill=1;rounded=0;entryX=0;entryY=0.5;entryDx=0;entryDy=0;exitX=1;exitY=0.5;exitDx=0;exitDy=0;" parent="1" source="Tb4A12UNGiTUDy-k_EDc-2" target="Tb4A12UNGiTUDy-k_EDc-34" edge="1">
          <mxGeometry width="100" height="100" relative="1" as="geometry">
            <mxPoint x="90" y="135" as="sourcePoint" />
            <mxPoint x="45" y="592" as="targetPoint" />
            <Array as="points">
              <mxPoint x="240" y="130" />
            </Array>
          </mxGeometry>
        </mxCell>
        <mxCell id="Tb4A12UNGiTUDy-k_EDc-48" value="" style="edgeStyle=elbowEdgeStyle;fontSize=12;html=1;endArrow=ERzeroToMany;endFill=1;rounded=0;entryX=1;entryY=0.5;entryDx=0;entryDy=0;exitX=1;exitY=0.5;exitDx=0;exitDy=0;" parent="1" source="-osVBcc6kpc7iCXDjhJq-157" target="Tb4A12UNGiTUDy-k_EDc-31" edge="1">
          <mxGeometry width="100" height="100" relative="1" as="geometry">
            <mxPoint x="-40" y="425" as="sourcePoint" />
            <mxPoint x="80" y="665" as="targetPoint" />
            <Array as="points">
              <mxPoint x="700" y="-210" />
            </Array>
          </mxGeometry>
        </mxCell>
        <mxCell id="Tb4A12UNGiTUDy-k_EDc-49" value="" style="edgeStyle=elbowEdgeStyle;fontSize=12;html=1;endArrow=ERzeroToMany;endFill=1;rounded=0;entryX=0;entryY=0.5;entryDx=0;entryDy=0;exitX=0;exitY=0.5;exitDx=0;exitDy=0;" parent="1" source="-osVBcc6kpc7iCXDjhJq-87" target="Tb4A12UNGiTUDy-k_EDc-15" edge="1">
          <mxGeometry width="100" height="100" relative="1" as="geometry">
            <mxPoint x="-210" y="-646" as="sourcePoint" />
            <mxPoint x="-220" y="604" as="targetPoint" />
            <Array as="points">
              <mxPoint x="-690" y="-210" />
            </Array>
          </mxGeometry>
        </mxCell>
        <mxCell id="Tb4A12UNGiTUDy-k_EDc-50" value="Pesagens_matrizes" style="shape=table;startSize=20;container=1;collapsible=1;childLayout=tableLayout;fixedRows=1;rowLines=0;fontStyle=1;align=center;resizeLast=1;html=1;" parent="1" vertex="1">
          <mxGeometry x="-620" y="-880" width="280" height="150" as="geometry">
            <mxRectangle x="-140" y="120" width="90" height="30" as="alternateBounds" />
          </mxGeometry>
        </mxCell>
        <mxCell id="Tb4A12UNGiTUDy-k_EDc-51" value="" style="shape=tableRow;horizontal=0;startSize=0;swimlaneHead=0;swimlaneBody=0;fillColor=none;collapsible=0;dropTarget=0;points=[[0,0.5],[1,0.5]];portConstraint=eastwest;top=0;left=0;right=0;bottom=1;" parent="Tb4A12UNGiTUDy-k_EDc-50" vertex="1">
          <mxGeometry y="20" width="280" height="30" as="geometry" />
        </mxCell>
        <mxCell id="Tb4A12UNGiTUDy-k_EDc-52" value="PK" style="shape=partialRectangle;connectable=0;fillColor=none;top=0;left=0;bottom=0;right=0;fontStyle=1;overflow=hidden;whiteSpace=wrap;html=1;" parent="Tb4A12UNGiTUDy-k_EDc-51" vertex="1">
          <mxGeometry width="30" height="30" as="geometry">
            <mxRectangle width="30" height="30" as="alternateBounds" />
          </mxGeometry>
        </mxCell>
        <mxCell id="Tb4A12UNGiTUDy-k_EDc-53" value="id&lt;span style=&quot;white-space: pre;&quot;&gt;&#x9;&lt;/span&gt;&lt;span style=&quot;font-weight: 400;&quot;&gt;INT&lt;span style=&quot;white-space: pre;&quot;&gt;&#x9;&lt;/span&gt;AUTO_INCREMENT&lt;/span&gt;" style="shape=partialRectangle;connectable=0;fillColor=none;top=0;left=0;bottom=0;right=0;align=left;spacingLeft=6;fontStyle=5;overflow=hidden;whiteSpace=wrap;html=1;" parent="Tb4A12UNGiTUDy-k_EDc-51" vertex="1">
          <mxGeometry x="30" width="250" height="30" as="geometry">
            <mxRectangle width="250" height="30" as="alternateBounds" />
          </mxGeometry>
        </mxCell>
        <mxCell id="Tb4A12UNGiTUDy-k_EDc-54" value="" style="shape=tableRow;horizontal=0;startSize=0;swimlaneHead=0;swimlaneBody=0;fillColor=none;collapsible=0;dropTarget=0;points=[[0,0.5],[1,0.5]];portConstraint=eastwest;top=0;left=0;right=0;bottom=0;" parent="Tb4A12UNGiTUDy-k_EDc-50" vertex="1">
          <mxGeometry y="50" width="280" height="30" as="geometry" />
        </mxCell>
        <mxCell id="Tb4A12UNGiTUDy-k_EDc-55" value="" style="shape=partialRectangle;connectable=0;fillColor=none;top=0;left=0;bottom=0;right=0;editable=1;overflow=hidden;whiteSpace=wrap;html=1;" parent="Tb4A12UNGiTUDy-k_EDc-54" vertex="1">
          <mxGeometry width="30" height="30" as="geometry">
            <mxRectangle width="30" height="30" as="alternateBounds" />
          </mxGeometry>
        </mxCell>
        <mxCell id="Tb4A12UNGiTUDy-k_EDc-56" value="matriz_id&lt;span style=&quot;white-space: pre;&quot;&gt;&#x9;&lt;/span&gt;INT" style="shape=partialRectangle;connectable=0;fillColor=none;top=0;left=0;bottom=0;right=0;align=left;spacingLeft=6;overflow=hidden;whiteSpace=wrap;html=1;" parent="Tb4A12UNGiTUDy-k_EDc-54" vertex="1">
          <mxGeometry x="30" width="250" height="30" as="geometry">
            <mxRectangle width="250" height="30" as="alternateBounds" />
          </mxGeometry>
        </mxCell>
        <mxCell id="Tb4A12UNGiTUDy-k_EDc-60" value="" style="shape=tableRow;horizontal=0;startSize=0;swimlaneHead=0;swimlaneBody=0;fillColor=none;collapsible=0;dropTarget=0;points=[[0,0.5],[1,0.5]];portConstraint=eastwest;top=0;left=0;right=0;bottom=0;" parent="Tb4A12UNGiTUDy-k_EDc-50" vertex="1">
          <mxGeometry y="80" width="280" height="30" as="geometry" />
        </mxCell>
        <mxCell id="Tb4A12UNGiTUDy-k_EDc-61" value="" style="shape=partialRectangle;connectable=0;fillColor=none;top=0;left=0;bottom=0;right=0;editable=1;overflow=hidden;whiteSpace=wrap;html=1;" parent="Tb4A12UNGiTUDy-k_EDc-60" vertex="1">
          <mxGeometry width="30" height="30" as="geometry">
            <mxRectangle width="30" height="30" as="alternateBounds" />
          </mxGeometry>
        </mxCell>
        <mxCell id="Tb4A12UNGiTUDy-k_EDc-62" value="peso&lt;span style=&quot;white-space: pre;&quot;&gt;&#x9;&lt;/span&gt;DECIMAL(5,2)&lt;span style=&quot;white-space: pre;&quot;&gt;&#x9;&lt;span style=&quot;white-space: pre;&quot;&gt;&#x9;&lt;/span&gt;&lt;/span&gt;" style="shape=partialRectangle;connectable=0;fillColor=none;top=0;left=0;bottom=0;right=0;align=left;spacingLeft=6;overflow=hidden;whiteSpace=wrap;html=1;" parent="Tb4A12UNGiTUDy-k_EDc-60" vertex="1">
          <mxGeometry x="30" width="250" height="30" as="geometry">
            <mxRectangle width="250" height="30" as="alternateBounds" />
          </mxGeometry>
        </mxCell>
        <mxCell id="Tb4A12UNGiTUDy-k_EDc-63" value="" style="shape=tableRow;horizontal=0;startSize=0;swimlaneHead=0;swimlaneBody=0;fillColor=none;collapsible=0;dropTarget=0;points=[[0,0.5],[1,0.5]];portConstraint=eastwest;top=0;left=0;right=0;bottom=0;" parent="Tb4A12UNGiTUDy-k_EDc-50" vertex="1">
          <mxGeometry y="110" width="280" height="30" as="geometry" />
        </mxCell>
        <mxCell id="Tb4A12UNGiTUDy-k_EDc-64" value="" style="shape=partialRectangle;connectable=0;fillColor=none;top=0;left=0;bottom=0;right=0;editable=1;overflow=hidden;" parent="Tb4A12UNGiTUDy-k_EDc-63" vertex="1">
          <mxGeometry width="30" height="30" as="geometry">
            <mxRectangle width="30" height="30" as="alternateBounds" />
          </mxGeometry>
        </mxCell>
        <mxCell id="Tb4A12UNGiTUDy-k_EDc-65" value="data_pesagem    DATE" style="shape=partialRectangle;connectable=0;fillColor=none;top=0;left=0;bottom=0;right=0;align=left;spacingLeft=6;overflow=hidden;" parent="Tb4A12UNGiTUDy-k_EDc-63" vertex="1">
          <mxGeometry x="30" width="250" height="30" as="geometry">
            <mxRectangle width="250" height="30" as="alternateBounds" />
          </mxGeometry>
        </mxCell>
        <mxCell id="Tb4A12UNGiTUDy-k_EDc-69" value="Pesagens_crias" style="shape=table;startSize=20;container=1;collapsible=1;childLayout=tableLayout;fixedRows=1;rowLines=0;fontStyle=1;align=center;resizeLast=1;html=1;" parent="1" vertex="1">
          <mxGeometry x="340" y="-880" width="280" height="150" as="geometry">
            <mxRectangle x="-140" y="120" width="90" height="30" as="alternateBounds" />
          </mxGeometry>
        </mxCell>
        <mxCell id="Tb4A12UNGiTUDy-k_EDc-70" value="" style="shape=tableRow;horizontal=0;startSize=0;swimlaneHead=0;swimlaneBody=0;fillColor=none;collapsible=0;dropTarget=0;points=[[0,0.5],[1,0.5]];portConstraint=eastwest;top=0;left=0;right=0;bottom=1;" parent="Tb4A12UNGiTUDy-k_EDc-69" vertex="1">
          <mxGeometry y="20" width="280" height="30" as="geometry" />
        </mxCell>
        <mxCell id="Tb4A12UNGiTUDy-k_EDc-71" value="PK" style="shape=partialRectangle;connectable=0;fillColor=none;top=0;left=0;bottom=0;right=0;fontStyle=1;overflow=hidden;whiteSpace=wrap;html=1;" parent="Tb4A12UNGiTUDy-k_EDc-70" vertex="1">
          <mxGeometry width="30" height="30" as="geometry">
            <mxRectangle width="30" height="30" as="alternateBounds" />
          </mxGeometry>
        </mxCell>
        <mxCell id="Tb4A12UNGiTUDy-k_EDc-72" value="id&lt;span style=&quot;white-space: pre;&quot;&gt;&#x9;&lt;/span&gt;&lt;span style=&quot;font-weight: 400;&quot;&gt;INT&lt;span style=&quot;white-space: pre;&quot;&gt;&#x9;&lt;/span&gt;AUTO_INCREMENT&lt;/span&gt;" style="shape=partialRectangle;connectable=0;fillColor=none;top=0;left=0;bottom=0;right=0;align=left;spacingLeft=6;fontStyle=5;overflow=hidden;whiteSpace=wrap;html=1;" parent="Tb4A12UNGiTUDy-k_EDc-70" vertex="1">
          <mxGeometry x="30" width="250" height="30" as="geometry">
            <mxRectangle width="250" height="30" as="alternateBounds" />
          </mxGeometry>
        </mxCell>
        <mxCell id="Tb4A12UNGiTUDy-k_EDc-73" value="" style="shape=tableRow;horizontal=0;startSize=0;swimlaneHead=0;swimlaneBody=0;fillColor=none;collapsible=0;dropTarget=0;points=[[0,0.5],[1,0.5]];portConstraint=eastwest;top=0;left=0;right=0;bottom=0;" parent="Tb4A12UNGiTUDy-k_EDc-69" vertex="1">
          <mxGeometry y="50" width="280" height="30" as="geometry" />
        </mxCell>
        <mxCell id="Tb4A12UNGiTUDy-k_EDc-74" value="" style="shape=partialRectangle;connectable=0;fillColor=none;top=0;left=0;bottom=0;right=0;editable=1;overflow=hidden;whiteSpace=wrap;html=1;" parent="Tb4A12UNGiTUDy-k_EDc-73" vertex="1">
          <mxGeometry width="30" height="30" as="geometry">
            <mxRectangle width="30" height="30" as="alternateBounds" />
          </mxGeometry>
        </mxCell>
        <mxCell id="Tb4A12UNGiTUDy-k_EDc-75" value="cria_id&lt;span style=&quot;white-space: pre;&quot;&gt;&#x9;&lt;/span&gt;INT" style="shape=partialRectangle;connectable=0;fillColor=none;top=0;left=0;bottom=0;right=0;align=left;spacingLeft=6;overflow=hidden;whiteSpace=wrap;html=1;" parent="Tb4A12UNGiTUDy-k_EDc-73" vertex="1">
          <mxGeometry x="30" width="250" height="30" as="geometry">
            <mxRectangle width="250" height="30" as="alternateBounds" />
          </mxGeometry>
        </mxCell>
        <mxCell id="Tb4A12UNGiTUDy-k_EDc-76" value="" style="shape=tableRow;horizontal=0;startSize=0;swimlaneHead=0;swimlaneBody=0;fillColor=none;collapsible=0;dropTarget=0;points=[[0,0.5],[1,0.5]];portConstraint=eastwest;top=0;left=0;right=0;bottom=0;" parent="Tb4A12UNGiTUDy-k_EDc-69" vertex="1">
          <mxGeometry y="80" width="280" height="30" as="geometry" />
        </mxCell>
        <mxCell id="Tb4A12UNGiTUDy-k_EDc-77" value="" style="shape=partialRectangle;connectable=0;fillColor=none;top=0;left=0;bottom=0;right=0;editable=1;overflow=hidden;whiteSpace=wrap;html=1;" parent="Tb4A12UNGiTUDy-k_EDc-76" vertex="1">
          <mxGeometry width="30" height="30" as="geometry">
            <mxRectangle width="30" height="30" as="alternateBounds" />
          </mxGeometry>
        </mxCell>
        <mxCell id="Tb4A12UNGiTUDy-k_EDc-78" value="peso&lt;span style=&quot;white-space: pre;&quot;&gt;&#x9;&lt;/span&gt;DECIMAL(5,2)&lt;span style=&quot;white-space: pre;&quot;&gt;&#x9;&lt;span style=&quot;white-space: pre;&quot;&gt;&#x9;&lt;/span&gt;&lt;/span&gt;" style="shape=partialRectangle;connectable=0;fillColor=none;top=0;left=0;bottom=0;right=0;align=left;spacingLeft=6;overflow=hidden;whiteSpace=wrap;html=1;" parent="Tb4A12UNGiTUDy-k_EDc-76" vertex="1">
          <mxGeometry x="30" width="250" height="30" as="geometry">
            <mxRectangle width="250" height="30" as="alternateBounds" />
          </mxGeometry>
        </mxCell>
        <mxCell id="Tb4A12UNGiTUDy-k_EDc-79" value="" style="shape=tableRow;horizontal=0;startSize=0;swimlaneHead=0;swimlaneBody=0;fillColor=none;collapsible=0;dropTarget=0;points=[[0,0.5],[1,0.5]];portConstraint=eastwest;top=0;left=0;right=0;bottom=0;" parent="Tb4A12UNGiTUDy-k_EDc-69" vertex="1">
          <mxGeometry y="110" width="280" height="30" as="geometry" />
        </mxCell>
        <mxCell id="Tb4A12UNGiTUDy-k_EDc-80" value="" style="shape=partialRectangle;connectable=0;fillColor=none;top=0;left=0;bottom=0;right=0;editable=1;overflow=hidden;" parent="Tb4A12UNGiTUDy-k_EDc-79" vertex="1">
          <mxGeometry width="30" height="30" as="geometry">
            <mxRectangle width="30" height="30" as="alternateBounds" />
          </mxGeometry>
        </mxCell>
        <mxCell id="Tb4A12UNGiTUDy-k_EDc-81" value="data_pesagem    DATE" style="shape=partialRectangle;connectable=0;fillColor=none;top=0;left=0;bottom=0;right=0;align=left;spacingLeft=6;overflow=hidden;" parent="Tb4A12UNGiTUDy-k_EDc-79" vertex="1">
          <mxGeometry x="30" width="250" height="30" as="geometry">
            <mxRectangle width="250" height="30" as="alternateBounds" />
          </mxGeometry>
        </mxCell>
        <mxCell id="Tb4A12UNGiTUDy-k_EDc-84" value="" style="edgeStyle=elbowEdgeStyle;fontSize=12;html=1;endArrow=ERzeroToMany;endFill=1;rounded=0;exitX=1;exitY=0.5;exitDx=0;exitDy=0;entryX=1;entryY=0.5;entryDx=0;entryDy=0;" parent="1" source="-osVBcc6kpc7iCXDjhJq-157" target="Tb4A12UNGiTUDy-k_EDc-73" edge="1">
          <mxGeometry width="100" height="100" relative="1" as="geometry">
            <mxPoint x="-100" y="-645" as="sourcePoint" />
            <mxPoint x="20" y="-645" as="targetPoint" />
            <Array as="points">
              <mxPoint x="630" y="-760" />
            </Array>
          </mxGeometry>
        </mxCell>
        <mxCell id="Tb4A12UNGiTUDy-k_EDc-85" value="" style="edgeStyle=elbowEdgeStyle;fontSize=12;html=1;endArrow=ERzeroToMany;endFill=1;rounded=0;exitX=0;exitY=0.5;exitDx=0;exitDy=0;entryX=0;entryY=0.5;entryDx=0;entryDy=0;" parent="1" source="-osVBcc6kpc7iCXDjhJq-87" target="Tb4A12UNGiTUDy-k_EDc-54" edge="1">
          <mxGeometry width="100" height="100" relative="1" as="geometry">
            <mxPoint x="90" y="-645" as="sourcePoint" />
            <mxPoint x="210" y="-645" as="targetPoint" />
            <Array as="points">
              <mxPoint x="-640" y="-730" />
            </Array>
          </mxGeometry>
        </mxCell>
        <mxCell id="Tb4A12UNGiTUDy-k_EDc-86" value="Coberturas_matrizes" style="shape=table;startSize=20;container=1;collapsible=1;childLayout=tableLayout;fixedRows=1;rowLines=0;fontStyle=1;align=center;resizeLast=1;html=1;" parent="1" vertex="1">
          <mxGeometry x="-620" y="-1040" width="280" height="120" as="geometry">
            <mxRectangle x="-140" y="120" width="90" height="30" as="alternateBounds" />
          </mxGeometry>
        </mxCell>
        <mxCell id="Tb4A12UNGiTUDy-k_EDc-87" value="" style="shape=tableRow;horizontal=0;startSize=0;swimlaneHead=0;swimlaneBody=0;fillColor=none;collapsible=0;dropTarget=0;points=[[0,0.5],[1,0.5]];portConstraint=eastwest;top=0;left=0;right=0;bottom=1;" parent="Tb4A12UNGiTUDy-k_EDc-86" vertex="1">
          <mxGeometry y="20" width="280" height="30" as="geometry" />
        </mxCell>
        <mxCell id="Tb4A12UNGiTUDy-k_EDc-88" value="PK" style="shape=partialRectangle;connectable=0;fillColor=none;top=0;left=0;bottom=0;right=0;fontStyle=1;overflow=hidden;whiteSpace=wrap;html=1;" parent="Tb4A12UNGiTUDy-k_EDc-87" vertex="1">
          <mxGeometry width="30" height="30" as="geometry">
            <mxRectangle width="30" height="30" as="alternateBounds" />
          </mxGeometry>
        </mxCell>
        <mxCell id="Tb4A12UNGiTUDy-k_EDc-89" value="id&lt;span style=&quot;white-space: pre;&quot;&gt;&#x9;&lt;/span&gt;&lt;span style=&quot;font-weight: 400;&quot;&gt;INT&lt;span style=&quot;white-space: pre;&quot;&gt;&#x9;&lt;/span&gt;AUTO_INCREMENT&lt;/span&gt;" style="shape=partialRectangle;connectable=0;fillColor=none;top=0;left=0;bottom=0;right=0;align=left;spacingLeft=6;fontStyle=5;overflow=hidden;whiteSpace=wrap;html=1;" parent="Tb4A12UNGiTUDy-k_EDc-87" vertex="1">
          <mxGeometry x="30" width="250" height="30" as="geometry">
            <mxRectangle width="250" height="30" as="alternateBounds" />
          </mxGeometry>
        </mxCell>
        <mxCell id="Tb4A12UNGiTUDy-k_EDc-90" value="" style="shape=tableRow;horizontal=0;startSize=0;swimlaneHead=0;swimlaneBody=0;fillColor=none;collapsible=0;dropTarget=0;points=[[0,0.5],[1,0.5]];portConstraint=eastwest;top=0;left=0;right=0;bottom=0;" parent="Tb4A12UNGiTUDy-k_EDc-86" vertex="1">
          <mxGeometry y="50" width="280" height="30" as="geometry" />
        </mxCell>
        <mxCell id="Tb4A12UNGiTUDy-k_EDc-91" value="" style="shape=partialRectangle;connectable=0;fillColor=none;top=0;left=0;bottom=0;right=0;editable=1;overflow=hidden;whiteSpace=wrap;html=1;" parent="Tb4A12UNGiTUDy-k_EDc-90" vertex="1">
          <mxGeometry width="30" height="30" as="geometry">
            <mxRectangle width="30" height="30" as="alternateBounds" />
          </mxGeometry>
        </mxCell>
        <mxCell id="Tb4A12UNGiTUDy-k_EDc-92" value="matriz_id&lt;span style=&quot;white-space: pre;&quot;&gt;&#x9;&lt;/span&gt;INT" style="shape=partialRectangle;connectable=0;fillColor=none;top=0;left=0;bottom=0;right=0;align=left;spacingLeft=6;overflow=hidden;whiteSpace=wrap;html=1;" parent="Tb4A12UNGiTUDy-k_EDc-90" vertex="1">
          <mxGeometry x="30" width="250" height="30" as="geometry">
            <mxRectangle width="250" height="30" as="alternateBounds" />
          </mxGeometry>
        </mxCell>
        <mxCell id="Tb4A12UNGiTUDy-k_EDc-96" value="" style="shape=tableRow;horizontal=0;startSize=0;swimlaneHead=0;swimlaneBody=0;fillColor=none;collapsible=0;dropTarget=0;points=[[0,0.5],[1,0.5]];portConstraint=eastwest;top=0;left=0;right=0;bottom=0;" parent="Tb4A12UNGiTUDy-k_EDc-86" vertex="1">
          <mxGeometry y="80" width="280" height="30" as="geometry" />
        </mxCell>
        <mxCell id="Tb4A12UNGiTUDy-k_EDc-97" value="" style="shape=partialRectangle;connectable=0;fillColor=none;top=0;left=0;bottom=0;right=0;editable=1;overflow=hidden;" parent="Tb4A12UNGiTUDy-k_EDc-96" vertex="1">
          <mxGeometry width="30" height="30" as="geometry">
            <mxRectangle width="30" height="30" as="alternateBounds" />
          </mxGeometry>
        </mxCell>
        <mxCell id="Tb4A12UNGiTUDy-k_EDc-98" value="data_cobertura    DATE" style="shape=partialRectangle;connectable=0;fillColor=none;top=0;left=0;bottom=0;right=0;align=left;spacingLeft=6;overflow=hidden;" parent="Tb4A12UNGiTUDy-k_EDc-96" vertex="1">
          <mxGeometry x="30" width="250" height="30" as="geometry">
            <mxRectangle width="250" height="30" as="alternateBounds" />
          </mxGeometry>
        </mxCell>
        <mxCell id="Tb4A12UNGiTUDy-k_EDc-99" value="" style="edgeStyle=elbowEdgeStyle;fontSize=12;html=1;endArrow=ERzeroToMany;endFill=1;rounded=0;exitX=0;exitY=0.5;exitDx=0;exitDy=0;entryX=0;entryY=0.5;entryDx=0;entryDy=0;" parent="1" source="-osVBcc6kpc7iCXDjhJq-87" target="Tb4A12UNGiTUDy-k_EDc-90" edge="1">
          <mxGeometry width="100" height="100" relative="1" as="geometry">
            <mxPoint x="80" y="-655" as="sourcePoint" />
            <mxPoint x="200" y="-655" as="targetPoint" />
            <Array as="points">
              <mxPoint x="-660" y="-830" />
            </Array>
          </mxGeometry>
        </mxCell>
      </root>
    </mxGraphModel>
  </diagram>
</mxfile>
